<svg width="150" height="171" viewBox="0 0 150 171" fill="none" xmlns="http://www.w3.org/2000/svg"><path d="M133.338 86.57L93.75 123.959 150 170.833v-100L133.338 86.57z" fill="#13BC8C"/><path d="M0 70.833v100l56.25-46.875L0 70.833z" fill="#40E4B6"/><path d="M56.25 123.958L0 170.833h75v-29.166l-18.75-17.709z" fill="#29CFA0"/><path d="M75 141.667v29.166h75l-56.25-46.875L75 141.667z" fill="#28C498"/><path d="M16.664 55.095L0 70.833h16.663V55.095zM150 70.833l-16.665-15.739.001 15.74H150zM75 0L48.422 25.101l53.089-.063L75 0z" fill="#0AD69C"/><path d="M133.338 86.57L150 70.833h-16.663l.001 15.737zM75 141.667L16.66 86.569l.003-15.736H0l56.25 53.125L75 141.667z" fill="#0C926C"/><path d="M16.661 86.569l58.34 55.098 18.75-17.709 39.587-37.387-.001-15.738-.001-15.738L133.334 25l-31.823.038-53.089.063-31.755.038-.003 29.956-.001 15.738-.002 15.736zM37.501 75H112.5v12.5h-75V75zm0-12.5V50H112.5v12.5h-75z" fill="#F2F0E3"/><path fill="#F2F0E3" d="M27.5 38.333h89.167v53.333H27.5z"/><path d="M82.012 48.793h-13.88a2.311 2.311 0 01-2.313-2.313 2.311 2.311 0 012.314-2.313h13.879a2.311 2.311 0 012.313 2.313 2.311 2.311 0 01-2.313 2.313zm20.818 37.011H88.95a2.311 2.311 0 01-2.312-2.313 2.311 2.311 0 012.313-2.313h13.879a2.311 2.311 0 012.313 2.313 2.311 2.311 0 01-2.313 2.313zM58.88 67.299H47.312A2.311 2.311 0 0145 64.985a2.311 2.311 0 012.313-2.313H58.88a2.311 2.311 0 012.314 2.313 2.311 2.311 0 01-2.314 2.314zm34.626 2.327H77.313A2.311 2.311 0 0175 67.313 2.311 2.311 0 0177.313 65h16.193a2.311 2.311 0 012.313 2.313 2.311 2.311 0 01-2.313 2.313zM68.133 67.3a2.428 2.428 0 01-1.643-.671 2.422 2.422 0 01-.67-1.643c0-.601.252-1.205.67-1.642.856-.856 2.429-.856 3.285 0 .416.437.67 1.04.67 1.642 0 .602-.254 1.203-.67 1.643-.44.416-1.041.67-1.642.67zm11.565 18.504H56.566a2.311 2.311 0 01-2.313-2.313 2.311 2.311 0 012.313-2.313h23.132a2.311 2.311 0 012.314 2.313 2.311 2.311 0 01-2.314 2.313zm-32.385.001a2.428 2.428 0 01-1.642-.671A2.422 2.422 0 0145 83.492c0-.602.252-1.206.67-1.643.857-.856 2.407-.856 3.286 0 .416.437.67 1.041.67 1.643 0 .601-.254 1.203-.67 1.642a2.34 2.34 0 01-1.643.67zM102.831 67.3a2.43 2.43 0 01-1.643-.671 2.424 2.424 0 01-.67-1.643c0-.627.252-1.205.67-1.642.856-.856 2.429-.856 3.285 0 .417.437.671 1.015.671 1.642 0 .625-.254 1.203-.671 1.643a2.431 2.431 0 01-1.642.67zM58.88 104.31H47.312A2.311 2.311 0 0145 101.997a2.311 2.311 0 012.313-2.313H58.88a2.311 2.311 0 012.314 2.313 2.311 2.311 0 01-2.314 2.313zm34.698 0H77.385a2.311 2.311 0 01-2.313-2.313 2.311 2.311 0 012.313-2.313h16.193a2.311 2.311 0 012.313 2.313 2.311 2.311 0 01-2.313 2.313zm-25.445.001a2.382 2.382 0 01-1.643-.671 2.423 2.423 0 01-.67-1.643c0-.626.252-1.205.67-1.642.856-.856 2.406-.856 3.285 0 .416.437.67 1.041.67 1.642 0 .602-.254 1.203-.67 1.643a2.435 2.435 0 01-1.642.671zm34.698 0a2.432 2.432 0 01-1.643-.671 2.425 2.425 0 01-.67-1.643c0-.601.252-1.205.67-1.642.856-.856 2.429-.856 3.285 0 .417.437.671 1.041.671 1.642 0 .602-.254 1.203-.671 1.643a2.39 2.39 0 01-1.642.671z" fill="#ABABAB"/></svg>