<?xml version="1.0" encoding="UTF-8"?>
<!DOCTYPE svg  PUBLIC '-//W3C//DTD SVG 1.1//EN'  'http://www.w3.org/Graphics/SVG/1.1/DTD/svg11.dtd'>
<svg version="1.1" xmlns="http://www.w3.org/2000/svg">
<defs>
<font id="Exo2-SemiBold" horiz-adv-x="580">
<font-face font-family="Exo 2 SemiBold" font-weight="600" ascent="800" bbox="-46 -253.895 936 941" cap-height="690" descent="-200" panose-1="0 0 0 0 0 0 0 0 0 0" underline-position="-100" underline-thickness="50" unicode-range="U+0020-2039" units-per-em="1000" x-height="491"/>
<missing-glyph/>
<glyph glyph-name="space" horiz-adv-x="219" unicode=" "/>
<glyph d="M205 695v-285l-12 -194h-96l-13 194v285h121zM160 137q24 0 33.5 -9.5t9.5 -33.5v-50q0 -25 -9.5 -34.5t-33.5 -9.5h-30q-24 0 -33.5 9.5t-9.5 34.5v50q0 24 9.5 33.5t33.5 9.5h30z" glyph-name="exclam" horiz-adv-x="289" unicode="!"/>
<glyph d="M305 690l-7 -219h-76l-8 219h91zM151 690l-7 -219h-77l-7 219h91z" glyph-name="quotedbl" horiz-adv-x="365" unicode='"'/>
<glyph d="M332 690l-120 -690h-93l120 690h93zM583 690l-120 -690h-93l120 690h93zM663 510l-15 -75h-568l14 75h569zM621 278l-15 -74h-568l14 74h569z" glyph-name="numbersign" horiz-adv-x="701" unicode="#"/>
<glyph d="M289 703q50 -1 106 -6t110 -19l-8 -85q-43 1 -98.5 2.5t-108.5 1.5q-31 0 -53.5 -2t-36.5 -10t-20 -24.5t-6 -45.5q0 -45 18.5 -64t61.5 -30l133 -40q81 -25 112 -72.5t31 -126.5q0 -59 -13.5 -97t-42.5 -59t-75.5 -30t-112.5 -9q-34 0 -92.5 4t-135.5 20l8 91 q59 -1 98.5 -2.5t68.5 -1.5h54q45 0 71 6.5t36.5 24t10.5 53.5q0 31 -8 48.5t-24 27.5t-44 17l-139 43q-76 24 -108 71t-32 126q0 59 13.5 96.5t43 57t75 27t107.5 7.5zM262 356l47 -2l-39 -476h-48zM359 796l-39 -442l-49 2l40 440h48z" glyph-name="dollar" horiz-adv-x="573" unicode="$"/>
<glyph d="M206 703q62 0 99 -20t52.5 -64.5t15.5 -120.5q0 -75 -15.5 -120t-52.5 -65t-99 -20q-61 0 -98 20t-52.5 65t-15.5 120q0 76 15.5 120.5t52.5 64.5t98 20zM206 633q-29 0 -45.5 -11.5t-23.5 -41t-7 -82.5t7 -82.5t23.5 -41t45.5 -11.5q30 0 46.5 11.5t23 41t6.5 82.5 t-6.5 82.5t-23 41t-46.5 11.5zM703 690l-428 -690h-79l428 690h79zM695 399q62 0 98.5 -20t52.5 -64.5t16 -119.5t-16 -120.5t-52.5 -65t-98.5 -19.5q-61 0 -98 19.5t-52.5 65t-15.5 120.5t15.5 119.5t52.5 64.5t98 20zM694 330q-29 0 -45.5 -11.5t-23 -41t-6.5 -82.5 t6.5 -83t23 -41.5t45.5 -11.5q30 0 46.5 11.5t23.5 41.5t7 83t-7 82.5t-23.5 41t-46.5 11.5z" glyph-name="percent" horiz-adv-x="902" unicode="%"/>
<glyph d="M344 701q32 0 74 -1.5t87 -9.5l-14 -87q-12 1 -29 1.5t-38 1t-42.5 0.5h-41.5q-51 0 -80.5 -7.5t-42 -29.5t-12.5 -67q0 -41 10 -63.5t34.5 -31t65.5 -8.5h394l-1 -85h-399q-45 0 -71.5 -10.5t-37.5 -35t-11 -70.5q0 -42 9.5 -65.5t33.5 -33t65 -9.5q62 1 111 18.5 t85 52.5l14 -70q-31 -38 -65 -60.5t-77 -32t-101 -9.5q-73 0 -118.5 17.5t-66.5 58t-21 110.5q0 79 29.5 126.5t105.5 54.5v4q-62 6 -88.5 46t-26.5 115q0 60 15 96t47.5 54t82.5 24t121 6zM594 516v-370q0 -31 13 -44t42 -13h67l14 -83q-16 -5 -38.5 -9t-44 -5.5 t-36.5 -1.5q-63 0 -97 32t-34 89v250l12 155h102z" glyph-name="ampersand" horiz-adv-x="769" unicode="&amp;"/>
<glyph d="M151 690l-7 -219h-77l-7 219h91z" glyph-name="quotesingle" horiz-adv-x="210" unicode="'"/>
<glyph d="M324 790l15 -55q-94 -43 -135 -150t-41 -272q0 -108 18 -192t56.5 -142t101.5 -89l-15 -55q-144 50 -211 165.5t-67 311.5q0 197 67 313t211 165z" glyph-name="parenleft" horiz-adv-x="363" unicode="("/>
<glyph d="M39 790q144 -49 211.5 -165t67.5 -313q0 -196 -67.5 -311.5t-211.5 -165.5l-15 55q63 31 101.5 89t56 142t17.5 192q0 165 -40.5 272t-134.5 150z" glyph-name="parenright" horiz-adv-x="363" unicode=")"/>
<glyph d="M261 691l-11 -165l104 -129l-55 -40l-73 122l-73 -121l-56 40l104 128l-10 165h70zM67 607l117 -47v-30l-16 -19l-123 31zM385 607l22 -66l-123 -30l-16 19v30z" glyph-name="asterisk" horiz-adv-x="452" unicode="*"/>
<glyph d="M495 345v-90h-448v90h448zM317 516l-1 -432h-90v432h91z" glyph-name="plus" horiz-adv-x="543" unicode="+"/>
<glyph d="M133 137q24 0 33 -9.5t10 -33.5v-64q0 -35 -5.5 -64.5t-15.5 -55.5t-24 -51l-51 16q7 32 10 60.5t3 64.5q-34 0 -35 38l1 56q1 24 11 33.5t33 9.5h30z" glyph-name="comma" horiz-adv-x="236" unicode=","/>
<glyph d="M365 295v-82h-301v82h301z" glyph-name="hyphen" horiz-adv-x="429" unicode="-"/>
<glyph d="M135 137q25 0 34.5 -9.5t9.5 -33.5v-50q0 -25 -9.5 -34.5t-34.5 -9.5h-33q-24 0 -34 9.5t-10 34.5v50q0 24 10 33.5t34 9.5h33z" glyph-name="period" horiz-adv-x="238" unicode="."/>
<glyph d="M514 690l-393 -760h-97l393 760h97z" glyph-name="slash" horiz-adv-x="538" unicode="/"/>
<glyph d="M309 703q95 0 150.5 -35.5t80 -114.5t24.5 -208t-24.5 -208t-80 -114.5t-150.5 -35.5q-94 0 -149.5 35.5t-80 114.5t-24.5 208t24.5 208t80 114.5t149.5 35.5zM309 602q-38 0 -63 -13t-40 -42t-21 -78.5t-6 -123.5q0 -73 6 -123t21 -79t40 -42t63 -13q37 0 63 13t41 42 t21 79t6 123q0 74 -6 123.5t-21 78.5t-41 42t-63 13z" glyph-name="zero" horiz-adv-x="619" unicode="0"/>
<glyph d="M317 690v-690h-125v514q0 17 1.5 34t4.5 34l-166 -46l-16 84l176 70h125z" glyph-name="one" horiz-adv-x="418" unicode="1"/>
<glyph d="M279 702q69 0 119 -12t77.5 -45.5t27.5 -98.5q0 -41 -10 -76t-36 -73.5t-72 -87.5l-188 -202q25 4 52.5 5t53.5 1h222v-113h-476v70q0 16 4 28.5t14 23.5l183 202q63 67 95 118.5t31 92.5q-1 27 -14 39.5t-37 16.5t-59 4q-33 0 -63 -1t-63.5 -3.5t-78.5 -7.5l-6 94 q48 11 86 16t71 7t67 2z" glyph-name="two" horiz-adv-x="573" unicode="2"/>
<glyph d="M266 703q80 0 128 -14.5t70.5 -49.5t22.5 -96q0 -46 -9 -82.5t-31.5 -60t-64.5 -31.5v-4q70 -11 96 -55t27 -118q1 -71 -21 -116.5t-72.5 -67t-136.5 -21.5q-57 0 -116 5.5t-114 12.5l6 94q38 -2 69.5 -4t61 -3t60.5 -1q52 0 82.5 10t44 36t13.5 70q0 35 -9.5 59.5 t-35 38t-75.5 12.5h-129v87h129q36 0 57.5 9t32 23.5t14 34t3.5 40.5q-1 38 -12 57t-37.5 25.5t-73.5 6.5q-51 0 -98 -1.5t-83 -4.5l-7 91q54 9 105.5 13.5t102.5 4.5z" glyph-name="three" horiz-adv-x="562" unicode="3"/>
<glyph d="M345 690l-178 -402q-7 -17 0.5 -26.5t22.5 -9.5h402v-79l-88 -12h-398q-28 0 -47.5 15.5t-25.5 40t5 49.5l187 424h120zM505 557v-557h-116v445l21 112h95z" glyph-name="four" horiz-adv-x="628" unicode="4"/>
<glyph d="M477 690l-5 -98h-288l-9 -155l90 -9q65 -5 109.5 -21t72 -43t39.5 -65.5t12 -89.5q0 -43 -10 -83t-35.5 -71t-71 -49t-117.5 -18q-45 0 -102.5 5.5t-117.5 17.5l12 97q48 -6 95 -10.5t82 -4.5q58 0 88 13.5t41 40t12 65.5q2 39 -8.5 62t-33 35t-60.5 17t-92 8l-69 7 q-19 3 -30.5 16t-10.5 32l17 301h390z" glyph-name="five" horiz-adv-x="545" unicode="5"/>
<glyph d="M338 702q23 0 65 -2t88 -15l-8 -83q-24 2 -44.5 2.5t-43.5 0.5h-57q-47 0 -78 -10t-49 -39t-25 -84.5t-7 -145.5q0 -72 3.5 -119t15.5 -73.5t37.5 -37.5t68.5 -11q52 0 76 16t31 48t7 79q0 50 -9 78.5t-33 41t-69 12.5q-30 0 -55.5 -7.5t-53 -25.5t-66.5 -51l-4 52 q34 48 64 75t65.5 38t84.5 11q75 0 117.5 -22t59.5 -70.5t17 -129.5q0 -58 -9 -103t-34 -76t-70.5 -47t-119.5 -16t-122.5 16t-75 55t-37.5 105.5t-11 166.5q0 121 17.5 194.5t52 111.5t87.5 51.5t124 13.5z" glyph-name="six" horiz-adv-x="582" unicode="6"/>
<glyph d="M437 690q23 0 38 -9.5t19.5 -25.5t-2.5 -38l-213 -617h-123l184 528q5 15 11 30t15 29h-329l-5 103h405z" glyph-name="seven" horiz-adv-x="521" unicode="7"/>
<glyph d="M309 701q71 0 116 -11t70.5 -33t35.5 -56.5t10 -82.5q0 -42 -10.5 -76.5t-32.5 -56t-58 -25.5v-4q46 -4 71.5 -28.5t35.5 -64.5t10 -91q0 -65 -20.5 -105.5t-74 -59t-153.5 -18.5q-99 0 -153 18.5t-75 59t-21 105.5q0 51 10 91t36 64.5t71 28.5v4q-36 4 -58.5 25.5 t-32.5 56t-10 76.5q0 48 10 82.5t36 56.5t71 33t116 11zM311 314q-41 0 -67 -5.5t-40.5 -18t-20.5 -35.5t-6 -59q0 -41 11 -65.5t40 -34t82 -9.5q52 0 80 9.5t38 34t10 65.5q0 37 -5.5 60t-19.5 35.5t-38.5 17.5t-63.5 5zM310 610q-49 0 -75 -9.5t-36 -32.5t-10 -64 t10 -63.5t36.5 -30.5t75.5 -8q50 0 75 8.5t33.5 30.5t8.5 63t-9 64t-34.5 32.5t-74.5 9.5z" glyph-name="eight" horiz-adv-x="616" unicode="8"/>
<glyph d="M282 702q77 0 125 -17t73 -56.5t34 -107t9 -169.5q0 -116 -15.5 -188t-48.5 -110.5t-86.5 -52t-129.5 -13.5q-25 0 -69 2.5t-96 14.5l8 84q27 -2 48 -2.5t46 -0.5h63q48 0 79 11.5t48.5 41t25 83t7.5 136.5q0 74 -3 122t-14.5 75.5t-36 38.5t-69.5 11q-49 0 -73.5 -16 t-33 -48t-8.5 -81q0 -44 9 -73t33 -43.5t67 -14.5q30 0 55 8t52.5 26.5t65.5 50.5l4 -52q-32 -48 -62.5 -75t-65.5 -38t-84 -11q-74 0 -116 28.5t-59 78.5t-17 114q0 83 21 136.5t72.5 80t141.5 26.5z" glyph-name="nine" horiz-adv-x="582" unicode="9"/>
<glyph d="M136 446q25 0 34.5 -9.5t9.5 -33.5v-50q0 -25 -9.5 -34.5t-34.5 -9.5h-33q-24 0 -34 9.5t-10 34.5v50q0 24 10 33.5t34 9.5h33zM136 137q25 0 34.5 -9.5t9.5 -33.5v-50q0 -25 -9.5 -34.5t-34.5 -9.5h-33q-24 0 -34 9.5t-10 34.5v50q0 24 10 33.5t34 9.5h33z" glyph-name="colon" horiz-adv-x="248" unicode=":"/>
<glyph d="M141 446q25 0 34.5 -9.5t9.5 -33.5v-50q0 -25 -9.5 -34.5t-34.5 -9.5h-33q-24 0 -34 9.5t-10 34.5v50q0 24 10 33.5t34 9.5h33zM139 137q24 0 33 -9.5t10 -33.5v-64q0 -35 -5.5 -64.5t-15.5 -55.5t-24 -51l-51 16q7 32 10 60.5t3 64.5q-34 0 -35 38l1 56q1 24 11 33.5 t33 9.5h30z" glyph-name="semicolon" horiz-adv-x="249" unicode=";"/>
<glyph d="M460 516v-95l-311 -122l311 -119v-95l-415 167v95z" glyph-name="less" horiz-adv-x="523" unicode="&lt;"/>
<glyph d="M516 445v-87h-450v87h450zM516 233v-88h-450v88h450z" glyph-name="equal" horiz-adv-x="581" unicode="="/>
<glyph d="M63 516l414 -169v-95l-414 -167v95l310 119l-310 122v95z" glyph-name="greater" horiz-adv-x="522" unicode="&gt;"/>
<glyph d="M268 712q105 0 157 -37.5t52 -117.5q0 -44 -17.5 -76.5t-43.5 -59t-52.5 -54.5t-46 -64t-22.5 -87h-99q-2 53 12.5 93t37.5 70t46 55t39 48.5t18 51.5q3 41 -23.5 60t-85.5 19q-49 0 -81 -1t-58 -2.5t-61 -3.5l-5 83q28 5 50 9t46.5 7.5t57 5t79.5 1.5zM260 137 q24 0 33.5 -9.5t9.5 -33.5v-50q0 -25 -9.5 -34.5t-33.5 -9.5h-29q-24 0 -33.5 9.5t-9.5 34.5v50q0 24 9.5 33.5t33.5 9.5h29z" glyph-name="question" horiz-adv-x="514" unicode="?"/>
<glyph d="M514 594q79 0 122 -35t43 -120v-305h-90l-10 71q-18 -18 -46 -37t-64 -31.5t-77 -12.5q-40 0 -71 14t-49 41t-18 67v49q0 50 32 78.5t92 28.5h188v35q0 35 -15.5 50t-59.5 15h-125q-63 0 -100.5 -5t-56.5 -27t-25.5 -70t-6.5 -133q0 -70 4.5 -115.5t17.5 -70.5t38 -36 t66 -13.5t101 -2.5h273v-82q-68 -5 -136 -8t-136 -3q-92 -1 -153.5 6t-99 26t-56.5 55.5t-25 96.5t-6 147q0 86 5 144.5t22 94.5t50.5 55t87.5 26t136 7h148zM566 340l-146 -4q-30 -1 -43 -12.5t-13 -36.5v-22q0 -29 15 -42t43 -13q24 0 50 6.5t50.5 18t43.5 28.5v77z" glyph-name="at" horiz-adv-x="742" unicode="@"/>
<glyph d="M381 690q16 0 28 -9t17 -24l209 -657h-128l-158 532l-8 32t-7 31h-28q-3 -15 -7 -31t-9 -32l-157 -532h-128l209 657q4 15 16.5 24t28.5 9h122zM497 295v-98h-355v98h355z" glyph-name="A" horiz-adv-x="640" unicode="A"/>
<glyph d="M322 698q88 0 140.5 -15.5t75.5 -54.5t23 -110q0 -74 -28 -113t-92 -45v-4q79 -7 110.5 -54t31.5 -130q0 -71 -23.5 -110t-74 -54.5t-131.5 -15.5q-63 0 -110 0.5t-86 2.5t-81 5l14 91q24 -1 89 -2t153 -1q47 0 74 8.5t38.5 32t11.5 66.5q0 48 -12 73.5t-39.5 36 t-77.5 10.5h-238v85h237q43 0 67.5 8.5t35.5 30.5t11 63t-11.5 63t-38.5 29.5t-75 7.5h-94t-73 -0.5t-58 -2.5l-14 91q38 4 72.5 5.5t76 2t96.5 0.5zM199 690v-690h-122v690h122z" glyph-name="B" horiz-adv-x="632" unicode="B"/>
<glyph d="M336 702q47 0 80 -2.5t61 -7t58 -12.5l-11 -93q-31 2 -58 3.5t-57.5 2.5t-72.5 1q-58 0 -91 -23t-46.5 -77t-13.5 -149t13.5 -149t46.5 -77t91 -23q67 0 112.5 2.5t89.5 7.5l11 -92q-45 -14 -93 -20t-120 -6q-104 0 -166 34.5t-89.5 112.5t-27.5 210t27.5 210t89.5 112.5 t166 34.5z" glyph-name="C" unicode="C"/>
<glyph d="M337 699q78 0 132.5 -17.5t88 -58t48.5 -109t15 -169.5t-15 -169.5t-48.5 -109t-88 -58t-132.5 -17.5q-75 0 -139 2.5t-121 6.5l52 96q40 -2 92 -3.5t116 -1.5q58 0 91.5 22.5t47.5 78t14 153.5t-14 153.5t-47.5 78.5t-91.5 23q-62 0 -110.5 -1t-94.5 -1l-55 92 q57 4 120.5 6.5t139.5 2.5zM202 690v-690h-125v690h125z" glyph-name="D" horiz-adv-x="675" unicode="D"/>
<glyph d="M213 692h106.5t107.5 -2t100 -6l-6 -93h-270q-28 0 -41.5 -14t-13.5 -44v-376q0 -30 13.5 -44t41.5 -14h270l6 -93q-47 -4 -100 -5.5t-107.5 -2t-106.5 -0.5q-64 0 -102.5 35.5t-39.5 95.5v432q1 60 39.5 95.5t102.5 35.5zM89 407h394v-92h-394v92z" glyph-name="E" horiz-adv-x="570" unicode="E"/>
<glyph d="M217 692q51 0 103.5 -0.5t104 -2t95.5 -6.5l-6 -92h-254q-30 0 -45 -14t-15 -44v-533h-125v558q0 63 39 98.5t103 35.5zM92 396h384v-92h-384v92z" glyph-name="F" horiz-adv-x="549" unicode="F"/>
<glyph d="M352 703q41 0 76.5 -2t67.5 -7t63 -14l-11 -92q-33 2 -65 3.5t-63.5 2t-63.5 0.5q-48 0 -81 -9.5t-52.5 -36.5t-28.5 -77t-9 -129q0 -93 12.5 -146.5t41.5 -77t78 -23.5q33 0 61 8t51.5 21.5t44.5 27.5l15 -65q-16 -20 -46.5 -43.5t-72.5 -40t-95 -16.5 q-78 0 -127.5 37.5t-72 117t-22.5 204.5q0 136 29 214t94.5 110.5t175.5 32.5zM581 398v-398h-92l-18 103l-12 25v270h122z" glyph-name="G" horiz-adv-x="640" unicode="G"/>
<glyph d="M202 690v-690h-125v690h125zM490 417v-98h-296v98h296zM604 690v-690h-125v690h125z" glyph-name="H" horiz-adv-x="681" unicode="H"/>
<glyph d="M202 690v-690h-125v690h125z" glyph-name="I" horiz-adv-x="279" unicode="I"/>
<glyph d="M284 690v-550q0 -74 -38.5 -112t-109.5 -38q-15 0 -37 1.5t-42 5.5t-33 9l14 84h49q73 0 73 64v536h124z" glyph-name="J" horiz-adv-x="359" unicode="J"/>
<glyph d="M592 690l-189 -281q-10 -16 -21 -27.5t-24 -21.5v-3q14 -10 28 -24t23 -30l196 -303h-140l-227 361l218 329h136zM202 690v-204q0 -32 -4.5 -63t-13.5 -62q7 -29 12.5 -59.5t5.5 -58.5v-243h-125v690h125zM290 405v-91h-128v91h128z" glyph-name="K" horiz-adv-x="616" unicode="K"/>
<glyph d="M199 690v-530q0 -29 15.5 -43.5t44.5 -14.5h244l6 -95q-68 -6 -141.5 -7.5t-145.5 -1.5q-76 0 -111.5 39t-35.5 99v554h124z" glyph-name="L" horiz-adv-x="526" unicode="L"/>
<glyph d="M760 690q47 0 48 -48l27 -642h-119l-24 591h-19l-129 -463q-9 -41 -51 -41h-88q-43 0 -53 41l-129 463h-19l-22 -591h-119l27 642q2 48 48 48h125q40 0 50 -41l106 -378q7 -24 11.5 -48t10.5 -48h15q6 24 11 48t11 49l106 377q9 41 51 41h125z" glyph-name="M" horiz-adv-x="899" unicode="M"/>
<glyph d="M638 690v-643q0 -47 -46 -47h-85q-21 0 -32 9.5t-20 28.5l-209 416q-10 22 -22 48.5t-19 50.5h-13q2 -25 3.5 -50.5t1.5 -50.5v-452h-120v643q0 47 46 47h83q21 0 32 -9.5t20 -28.5l203 -405q12 -22 24.5 -49.5t23.5 -55.5h15q-2 29 -3.5 56.5t-1.5 54.5v437h119z" glyph-name="N" horiz-adv-x="715" unicode="N"/>
<glyph d="M339 703q80 0 135 -17.5t88.5 -58.5t48.5 -110t15 -172q0 -102 -15 -171.5t-48.5 -110.5t-88.5 -58.5t-135 -17.5q-78 0 -133 17.5t-89 58.5t-49 110.5t-15 171.5q0 103 15 172t49 110t89 58.5t133 17.5zM339 601q-59 0 -92.5 -23.5t-47.5 -79t-14 -153.5t14 -153.5 t47.5 -79t92.5 -23.5q60 0 93.5 23.5t47.5 79t14 153.5t-14 153.5t-47.5 79t-93.5 23.5z" glyph-name="O" horiz-adv-x="679" unicode="O"/>
<glyph d="M330 699q91 0 143 -19.5t74.5 -67t22.5 -134.5t-21.5 -135t-71 -67t-131.5 -19q-45 0 -86.5 3t-77 8t-60.5 10.5t-35 9.5l3 67h117.5h120.5q44 1 69.5 11t36 36.5t10.5 75.5t-10.5 75.5t-36 37t-69.5 10.5q-88 0 -151 -1t-86 -3l-14 93q40 4 75.5 6t77 2.5t100.5 0.5z M202 690v-690h-125v690h125z" glyph-name="P" horiz-adv-x="606" unicode="P"/>
<glyph d="M340 703q79 0 134 -17.5t88.5 -58.5t49 -110t15.5 -172q0 -102 -15.5 -171.5t-49 -110.5t-88.5 -58.5t-134 -17.5t-134 17.5t-88.5 58.5t-49 110.5t-15.5 171.5q0 103 15.5 172t49 110t88.5 58.5t134 17.5zM294 -38q64 -26 133.5 -42.5t150.5 -28.5l-36 -113 q-85 19 -154.5 50.5t-124.5 65.5zM340 601q-59 0 -93 -23.5t-48 -79t-14 -153.5t14 -153.5t48 -79t93 -23.5t92.5 23.5t48 79t14.5 153.5t-14.5 153.5t-48 79t-92.5 23.5z" glyph-name="Q" horiz-adv-x="680" unicode="Q"/>
<glyph d="M331 699q86 0 139.5 -18t78 -61.5t24.5 -122.5q0 -52 -12.5 -88.5t-41 -58t-76.5 -27.5v-5q17 -4 35.5 -15.5t34 -32.5t23.5 -54l63 -216h-132l-57 213q-11 36 -30 50.5t-52 14.5q-65 0 -111 0.5t-76.5 1.5t-53.5 1l3 95h238q45 1 71 10.5t37 34t11 69.5q0 44 -11 68 t-37 33.5t-71 9.5q-88 0 -151 -1t-86 -2l-14 92q40 4 75.5 6t77.5 2.5t101 0.5zM200 690v-690h-123v690h123z" glyph-name="R" horiz-adv-x="635" unicode="R"/>
<glyph d="M289 703q51 -1 107.5 -6t110.5 -19l-8 -85q-43 1 -99.5 2.5t-108.5 1.5q-32 0 -54.5 -2t-36.5 -10t-20.5 -24.5t-6.5 -45.5q0 -45 18.5 -64t60.5 -30l136 -40q82 -25 113 -72.5t31 -126.5q0 -59 -14 -97t-43 -59t-76 -30t-113 -9q-34 0 -93.5 4t-135.5 20l8 90 q59 -2 99 -3.5t69 -1.5h54q46 0 72 6t36.5 25t10.5 55q0 31 -7.5 48.5t-24.5 27.5t-44 17l-141 43q-78 24 -109.5 71t-31.5 126q0 59 14 96.5t43 57t74.5 27t109.5 7.5z" glyph-name="S" horiz-adv-x="575" unicode="S"/>
<glyph d="M359 690v-690h-125v690h125zM573 690v-102h-553v102h553z" glyph-name="T" horiz-adv-x="593" unicode="T"/>
<glyph d="M605 690v-420q0 -103 -25 -165t-82 -90t-153 -28q-100 0 -160 28t-86.5 90t-26.5 165v420h125v-420q0 -68 13.5 -108t44.5 -56.5t84 -16.5t83.5 16.5t44 56.5t13.5 108v420h125z" glyph-name="U" horiz-adv-x="677" unicode="U"/>
<glyph d="M615 690l-197 -655q-5 -15 -17 -25t-29 -10h-118q-17 0 -29 10t-16 25l-197 655h129l141 -519l10 -38t8 -38h26q5 19 9.5 38.5t9.5 38.5l141 518h129z" glyph-name="V" horiz-adv-x="627" unicode="V"/>
<glyph d="M936 690l-124 -655q-4 -15 -16.5 -25t-30.5 -10h-124q-17 0 -30 10t-15 26l-91 479q-4 22 -7 43l-6 42h-20q-3 -21 -6.5 -42.5t-6.5 -42.5l-90 -479q-3 -16 -16 -26t-30 -10h-125q-18 0 -30.5 10t-15.5 25l-124 655h128l87 -505q3 -20 5.5 -44t5.5 -49h21q4 23 8 47.5 t8 46.5l89 465q2 18 15 28.5t30 10.5h113q18 0 30 -10.5t16 -28.5l89 -466q5 -23 8.5 -47t6.5 -46h22q2 23 5 47t6 45l87 506h128z" glyph-name="W" horiz-adv-x="964" unicode="W"/>
<glyph d="M600 690l-174 -334l188 -356h-131l-179 356l167 334h129zM159 690l167 -334l-179 -356h-131l188 356l-174 334h129zM380 398v-83h-136v83h136z" glyph-name="X" horiz-adv-x="630" unicode="X"/>
<glyph d="M588 690l-233 -464h-116l-234 464h131l128 -270q9 -19 15.5 -41t13.5 -42h8q6 20 13 42t15 41l128 270h131zM359 305v-305h-125v305h125z" glyph-name="Y" horiz-adv-x="594" unicode="Y"/>
<glyph d="M391 594l137 -1l-347 -497l-138 1zM536 97v-97h-493v97h493zM528 690v-97h-478v97h478z" glyph-name="Z" horiz-adv-x="577" unicode="Z"/>
<glyph d="M303 768v-77h-90q-16 0 -16 -18v-743q0 -18 16 -18h90v-77h-153q-29 0 -48.5 15t-19.5 53v797q0 30 19.5 49t48.5 19h153z" glyph-name="bracketleft" horiz-adv-x="339" unicode="["/>
<glyph d="M122 690l393 -760h-98l-393 760h98z" glyph-name="backslash" horiz-adv-x="538" unicode="\"/>
<glyph d="M188 768q30 0 49 -19t19 -49v-797q0 -30 -19 -49t-49 -19h-152v77h89q17 0 17 18v743q0 18 -17 18h-89v77h152z" glyph-name="bracketright" horiz-adv-x="339" unicode="]"/>
<glyph d="M268 615l149 -218l-48 -28l-141 169h-8l-142 -169l-48 28l150 218h88z" glyph-name="asciicircum" horiz-adv-x="447" unicode="^"/>
<glyph d="M442 0v-81h-442v81h442z" glyph-name="underscore" horiz-adv-x="442" unicode="_"/>
<glyph d="M95 736l189 -147l-37 -53l-210 115z" glyph-name="grave" horiz-adv-x="337" unicode="`"/>
<glyph d="M315 503q59 0 100 -15.5t61.5 -52.5t20.5 -102v-333h-96l-17 106l-9 14v214q0 39 -18 56.5t-69 17.5q-38 0 -95.5 -3t-115.5 -8l-11 83q35 7 79 12t89 8t81 3zM445 302l-1 -75h-225q-30 -1 -43 -16t-13 -41v-27q0 -30 16 -45t50 -15q27 0 60 10.5t65.5 31.5t58.5 50v-63 q-10 -15 -29 -35.5t-46.5 -40.5t-63 -33t-78.5 -13q-44 0 -79 15.5t-55 46t-20 75.5v52q0 58 38.5 90.5t105.5 32.5h259z" glyph-name="a" horiz-adv-x="561" unicode="a"/>
<glyph d="M358 503q94 0 137 -59t43 -196q0 -59 -10.5 -107t-36 -82.5t-70.5 -52.5t-115 -18q-25 0 -57 2t-65 7t-63.5 11.5t-54.5 16.5l97 74q22 -7 46.5 -11.5t49 -6t45.5 -1.5q40 1 63.5 16t34.5 51.5t11 100.5q0 60 -8.5 94.5t-30.5 48.5t-63 14q-36 0 -66.5 -17t-70.5 -46 l-8 65q27 29 57.5 51t65 33.5t69.5 11.5zM187 700l1 -170q0 -32 -2.5 -61.5t-10.5 -57.5l12 -14v-378l-121 6v675h121z" glyph-name="b" horiz-adv-x="584" unicode="b"/>
<glyph d="M288 503q25 0 55 -2t61 -8t56 -17l-14 -76q-37 2 -73.5 3t-63.5 1q-51 0 -80.5 -13.5t-42.5 -48t-13 -96.5t13 -96.5t42.5 -48.5t80.5 -14q15 0 39.5 1t53 3t55.5 5l12 -78q-39 -16 -87 -23t-95 -7q-88 0 -141 25t-76.5 81.5t-23.5 151.5t24 151.5t77 81t141 24.5z" glyph-name="c" horiz-adv-x="500" unicode="c"/>
<glyph d="M234 503q50 0 98 -13.5t87 -44.5l-8 -61q-39 11 -70 19t-69 8q-36 0 -57.5 -12.5t-32 -47.5t-10.5 -102q0 -64 10 -98.5t31.5 -48t54.5 -13.5q27 0 48 6.5t43 20.5t51 34l10 -68q-34 -39 -83.5 -66.5t-114.5 -27.5q-94 0 -134 66.5t-40 193.5q0 97 20.5 152.5t62 79 t103.5 23.5zM518 700v-700h-95l-13 88l-13 10v328l6 14q-4 29 -5 58.5t-1 60.5v141h121z" glyph-name="d" horiz-adv-x="587" unicode="d"/>
<glyph d="M287 503q119 0 171 -41.5t53 -122.5q1 -67 -31.5 -101.5t-107.5 -34.5h-280v75h247q34 0 43.5 18t9.5 44q-1 41 -23.5 57t-76.5 16q-47 0 -73 -13t-36.5 -47t-10.5 -98q0 -68 13 -105t43 -50.5t80 -13.5q37 0 85.5 3t93.5 8l12 -77q-27 -11 -62 -18t-72.5 -10.5 t-70.5 -3.5q-90 0 -144.5 26.5t-79 83.5t-24.5 147q0 97 24.5 153.5t78 80.5t138.5 24z" glyph-name="e" horiz-adv-x="552" unicode="e"/>
<glyph d="M263 719q17 0 44.5 -1t56.5 -2.5t50 -5.5l-11 -81h-97q-42 0 -59 -17t-17 -57v-555h-121v570q0 47 15 80t49 51t90 18zM376 491v-84h-354v79l91 5h263z" glyph-name="f" horiz-adv-x="394" unicode="f"/>
<glyph d="M276 503q83 0 131.5 -15.5t69.5 -50t21 -90.5q0 -54 -21 -88.5t-70 -50.5t-132 -16t-131.5 16t-70 50t-21.5 89q0 56 21.5 90.5t70.5 50t132 15.5zM275 424q-63 0 -87 -17t-24 -60q0 -41 24 -58.5t87 -17.5t86.5 17.5t23.5 58.5q0 43 -23.5 60t-86.5 17zM555 491l-7 -56 l-128 -14l-36 70h171zM132 222l62 -9q-15 -12 -20.5 -30.5t3 -35t37.5 -20.5l182 -24q74 -9 104 -43.5t30 -99.5q0 -61 -24 -95t-78.5 -47.5t-146.5 -13.5q-73 0 -121 7.5t-76.5 25t-40.5 45t-12 68.5q0 32 10.5 54t34.5 39.5t65 32.5l68 29l47 -17l-44 -31 q-23 -17 -37.5 -30.5t-21 -27t-6.5 -34.5q0 -28 11.5 -43t40.5 -20.5t81 -5.5q53 0 82 5.5t40.5 20t11.5 41.5q0 22 -7 32.5t-25 16.5t-50 10l-164 20q-35 4 -55.5 20.5t-28.5 40t-4.5 47t17 43.5t35.5 29z" glyph-name="g" horiz-adv-x="571" unicode="g"/>
<glyph d="M391 503q137 0 137 -135v-368h-122v331q0 40 -13.5 55t-46.5 15q-37 0 -76 -16t-94 -48l-9 70q56 46 112.5 71t111.5 25zM189 700l1 -180q0 -37 -3.5 -69.5t-9.5 -55.5l12 -14v-381h-121v700h121z" glyph-name="h" horiz-adv-x="593" unicode="h"/>
<glyph d="M192 491v-491h-120v491h120zM159 704q36 0 36 -36v-56q0 -36 -36 -36h-54q-36 0 -36 36v56q0 36 36 36h54z" glyph-name="i" horiz-adv-x="264" unicode="i"/>
<glyph d="M194 491v-483q0 -43 -14 -82t-39.5 -71.5t-60.5 -53.5l-67 53q32 36 46 72t14 82v483h121zM160 707q35 0 35 -36v-56q0 -36 -35 -36h-54q-36 0 -36 36v56q0 36 36 36h54z" glyph-name="j" horiz-adv-x="266" unicode="j"/>
<glyph d="M512 491l-140 -175q-8 -12 -20 -23.5t-21 -17.5v-2q9 -6 21 -19.5t20 -27.5l156 -226h-137l-179 278l163 213h137zM189 700l1 -299q0 -33 -3.5 -63t-9.5 -61q5 -29 8.5 -60t3.5 -58v-159h-121v700h121zM264 314v-78h-114v78h114z" glyph-name="k" horiz-adv-x="538" unicode="k"/>
<glyph d="M190 700l-1 -552q0 -28 16 -42.5t46 -14.5h43l14 -85q-11 -5 -30.5 -9t-40 -5.5t-35.5 -1.5q-61 0 -97 33t-36 95v582h121z" glyph-name="l" horiz-adv-x="315" unicode="l"/>
<glyph d="M680 503q65 0 99.5 -34.5t34.5 -100.5v-368h-120v331q-1 37 -15 53.5t-49 16.5q-21 0 -40.5 -6.5t-43.5 -20.5t-58 -37l-7 73q51 47 98.5 70t100.5 23zM165 491l12 -96l12 -14v-381h-121v491h97zM367 503q64 0 98 -34t35 -101v-368h-117v331q0 39 -16 54.5t-48 15.5 q-20 0 -40 -6t-44 -20t-60 -38l-7 73q50 47 98 70t101 23z" glyph-name="m" horiz-adv-x="879" unicode="m"/>
<glyph d="M391 503q137 0 137 -135v-368h-121v331q0 40 -14 55t-47 15q-37 0 -76 -16.5t-94 -47.5l-5 73q55 45 110.5 69t109.5 24zM167 491l12 -96l10 -14v-381h-121v491h99z" glyph-name="n" horiz-adv-x="593" unicode="n"/>
<glyph d="M290 503q90 0 143.5 -25t77 -82t23.5 -151t-23.5 -150.5t-77 -82t-143.5 -25.5q-88 0 -141.5 25.5t-77.5 82t-24 150.5t24 151t77.5 82t141.5 25zM290 411q-44 0 -69.5 -14.5t-36.5 -50.5t-11 -101t11 -101t36.5 -50t69.5 -14q45 0 71 14t36.5 50t10.5 101t-10.5 101 t-36.5 50.5t-71 14.5z" glyph-name="o" unicode="o"/>
<glyph d="M373 503q92 0 131.5 -67t39.5 -194q0 -97 -20.5 -152.5t-61.5 -79t-104 -23.5q-50 0 -97.5 14.5t-87.5 45.5l8 60q39 -11 70 -19t68 -8t58.5 12.5t31.5 47.5t10 101q0 65 -9 101t-29.5 50.5t-53.5 14.5q-36 0 -68 -15.5t-74 -45.5l-14 64q23 27 55.5 48t70.5 33t76 12z M166 491l12 -95l11 -14v-317l-5 -12q3 -29 4 -58.5t1 -60.5v-129h-121v686h98z" glyph-name="p" horiz-adv-x="592" unicode="p"/>
<glyph d="M280 503q25 0 56 -2t64 -6.5t63.5 -11.5t54.5 -16l-98 -75q-21 7 -46 12t-49.5 6.5t-43.5 0.5q-41 -1 -65 -15.5t-34.5 -51.5t-10.5 -105q0 -80 19.5 -115t74.5 -35q41 0 73 16t72 41l12 -61q-26 -26 -58 -48.5t-68.5 -36t-75.5 -13.5q-91 0 -132 63t-41 193 q0 62 10.5 110t36.5 81.5t71 51t115 17.5zM397 472l121 -5v-662h-121l-1 156q0 34 3 63t10 57l-12 14v377z" glyph-name="q" horiz-adv-x="584" unicode="q"/>
<glyph d="M162 491l16 -96l11 -14v-381h-121v491h94zM402 503l-12 -112h-35q-39 0 -79 -13t-100 -39l-8 71q52 44 106 68.5t104 24.5h24z" glyph-name="r" horiz-adv-x="416" unicode="r"/>
<glyph d="M245 503q34 0 73.5 -2t77.5 -5.5t68 -9.5l-8 -79q-48 1 -95.5 2.5t-93.5 1.5q-41 0 -64.5 -2t-33 -12t-9.5 -34q0 -29 16 -38.5t52 -18.5l134 -31q61 -15 89.5 -45.5t28.5 -93.5q0 -61 -22.5 -92.5t-71 -43t-123.5 -11.5q-29 0 -86 2.5t-125 13.5l8 79q20 0 47.5 -1 t59 -1h64.5q53 0 81.5 3.5t39.5 15t11 33.5q0 28 -18.5 37.5t-54.5 18.5l-131 32q-45 12 -70 30.5t-36 46t-11 67.5q0 54 20.5 84t65 42t117.5 11z" glyph-name="s" horiz-adv-x="521" unicode="s"/>
<glyph d="M230 631v-483q0 -30 13.5 -43.5t46.5 -13.5h68l13 -85q-17 -5 -41 -9t-47 -5.5t-39 -1.5q-64 0 -99.5 34.5t-35.5 99.5v507h121zM376 491v-84h-354v79l96 5h258z" glyph-name="t" horiz-adv-x="397" unicode="t"/>
<glyph d="M186 491v-332q-1 -37 14.5 -53t50.5 -16t70 15t85 45l12 -72q-56 -45 -108 -68t-108 -23q-137 0 -137 135v369h121zM515 491v-491h-96l-13 95l-12 14v382h121z" glyph-name="u" horiz-adv-x="583" unicode="u"/>
<glyph d="M538 491l-169 -462q-5 -13 -15.5 -21t-25.5 -8h-106q-14 0 -25 8t-16 21l-169 462h129l103 -322q7 -22 13 -44.5t11 -43.5h13q7 22 13.5 44t12.5 44l103 322h128z" glyph-name="v" horiz-adv-x="551" unicode="v"/>
<glyph d="M819 491l-130 -459q-4 -14 -16 -23t-28 -9h-97q-16 0 -29 10t-15 27l-65 301q-4 20 -6.5 40t-6.5 40h-13q-3 -20 -6.5 -40t-7.5 -40l-64 -301q-3 -17 -15.5 -27t-29.5 -10h-96q-16 0 -28 9t-15 23l-131 459h123l82 -337q4 -19 7.5 -38.5t6.5 -38.5h12q5 19 8.5 38.5 t7.5 38.5l65 300q3 16 14.5 26.5t29.5 10.5h88q16 0 28 -10.5t15 -27.5l65 -299q3 -19 7.5 -38t7.5 -39h12q4 20 7 38.5t8 38.5l82 337h123z" glyph-name="w" horiz-adv-x="839" unicode="w"/>
<glyph d="M523 491l-146 -239l158 -252h-125l-152 252l140 239h125zM152 491l141 -239l-151 -252h-127l158 252l-146 239h125zM343 295v-81h-134v81h134z" glyph-name="x" horiz-adv-x="551" unicode="x"/>
<glyph d="M537 491l-184 -506q-13 -35 -32.5 -69.5t-49.5 -62.5t-71 -44t-95 -12l-10 72q60 17 93.5 46t52.5 74l27 64q9 22 17.5 50.5t14.5 49.5l107 338h130zM141 491l109 -338q5 -17 9 -34.5t7 -34.5h25l-38 -84h-32q-14 0 -25 8t-15 22l-169 461h129z" glyph-name="y" horiz-adv-x="550" unicode="y"/>
<glyph d="M334 403l138 -1l-291 -315l-138 1zM476 88v-88h-433v88h433zM472 491v-89h-425v89h425z" glyph-name="z" horiz-adv-x="519" unicode="z"/>
<glyph d="M292 768v-75q-48 0 -65.5 -15.5t-17.5 -56.5v-163q1 -41 -7 -67.5t-29 -41t-60 -21.5q40 -11 61.5 -27t30 -40t8.5 -59v-222q0 -40 17.5 -55t65.5 -15v-75q-71 -7 -114.5 7.5t-64 48t-20.5 81.5v246q0 25 -6 36.5t-18.5 18t-33.5 14.5v82q23 7 34.5 12.5t15.5 18.5t4 42 v189q0 49 20.5 82t64 48t114.5 7z" glyph-name="braceleft" horiz-adv-x="331" unicode="{"/>
<glyph d="M170 781v-950h-86v950h86z" glyph-name="bar" horiz-adv-x="255" unicode="|"/>
<glyph d="M40 768q71 8 114 -7t63.5 -48t20.5 -82v-189q0 -29 4 -42t16 -18.5t34 -12.5v-82q-20 -8 -33.5 -14.5t-19 -18t-5.5 -36.5v-246q0 -48 -20.5 -81.5t-63.5 -48t-114 -7.5v75q48 0 65 15t17 55v222q1 35 9.5 59t30 40t61.5 27q-39 7 -60 21.5t-29 41t-8 67.5v163 q0 41 -17 56.5t-65 15.5v75z" glyph-name="braceright" horiz-adv-x="331" unicode="}"/>
<glyph d="M147 356q24 -1 51.5 -8.5t56 -17.5t54 -18t45.5 -10q25 -4 32.5 8t7.5 41h57q9 -68 -14.5 -101t-65.5 -32q-26 2 -54.5 9.5t-56 17t-52.5 18t-44 10.5q-25 3 -32.5 -9t-7.5 -42h-56q-7 47 3 76.5t30 44t46 13.5z" glyph-name="asciitilde" horiz-adv-x="518" unicode="~"/>
<glyph glyph-name="uni00A0" horiz-adv-x="219" unicode=" "/>
<glyph d="M184 285l13 -194v-281h-121v281l12 194h96zM152 501q24 0 33 -9.5t9 -34.5v-51q0 -24 -9 -33.5t-33 -9.5h-30q-24 0 -33.5 9.5t-9.5 33.5v51q0 25 9.5 34.5t33.5 9.5h30z" glyph-name="exclamdown" horiz-adv-x="272" unicode="¡"/>
<glyph d="M288 606q25 0 55 -2.5t61 -8.5t57 -16l-14 -76q-37 4 -74 5t-64 1q-54 0 -85.5 -13.5t-45 -48.5t-13.5 -99q0 -63 13.5 -98t45 -49t85.5 -14q15 0 40 0.5t53.5 3t54.5 6.5l12 -76q-39 -16 -86.5 -23t-94.5 -7q-89 0 -142 25t-76.5 81.5t-23.5 150.5q0 95 23.5 151.5 t77 81.5t141.5 25zM305 145l-15 -145h-48l15 145h48zM343 538l-36 -394h-49l36 394h49zM360 690l-16 -154h-48l15 154h49z" glyph-name="cent" horiz-adv-x="518" unicode="¢"/>
<glyph d="M317 702q21 0 52 -1t68 -3t75 -6l-7 -94q-18 0 -33 1t-32.5 1.5t-44 0.5h-68.5q-51 0 -70.5 -19t-17.5 -68l18 -239q2 -47 -5.5 -79t-24 -55.5t-43.5 -43.5q18 3 36 4t37 1h277v-102h-479v102q52 25 67 70.5t10 102.5l-15 243q-3 58 8.5 94.5t37.5 56t65 26.5t89 7z M448 398l-3 -69h-394l-1 69h398z" glyph-name="sterling" horiz-adv-x="579" unicode="£"/>
<glyph d="M293 482q-34 0 -63.5 -17.5t-47 -47t-17.5 -65.5q0 -35 17.5 -64.5t47 -47t63.5 -17.5q35 0 64 17.5t46.5 47t17.5 64.5q0 36 -17.5 65.5t-46.5 47t-64 17.5zM111 587l84 -85l-51 -51l-85 84zM479 587l52 -52l-83 -82l-51 51zM147 262l54 -55l-90 -91l-55 55zM441 255 l90 -88l-52 -51l-89 89zM293 552q56 0 101 -27t72 -72.5t27 -101.5q0 -55 -27 -100t-72.5 -72t-100.5 -27q-54 0 -99.5 27t-72.5 72t-27 100q0 56 27 101.5t72 72.5t100 27z" glyph-name="currency" horiz-adv-x="589" unicode="¤"/>
<glyph d="M614 690l-233 -449h-117l-233 449h129l128 -258q10 -19 17 -41.5t13 -42.5h9q7 20 14.5 42.5t15.5 40.5l127 259h130zM385 320v-320h-125v320h125zM554 215v-65h-459l-2 65h461zM554 333v-66h-459l-2 66h461z" glyph-name="yen" horiz-adv-x="645" unicode="¥"/>
<glyph d="M171 781v-400h-86v400h86zM171 231v-400h-86v400h86z" glyph-name="brokenbar" horiz-adv-x="257" unicode="¦"/>
<glyph d="M158 371q-2 -41 2.5 -68t21.5 -46.5t49 -37.5l165 -92q27 -15 50 -34.5t37 -48.5t14 -76q0 -60 -25.5 -90.5t-73 -40t-113.5 -9.5q-28 1 -66.5 2t-79.5 4t-77 6l9 89q31 -2 57.5 -3.5t56 -1.5t66.5 -1q37 0 62.5 2.5t39.5 13t14 34.5q3 30 -14.5 47.5t-42.5 30.5l-149 80 q-53 27 -77 61t-25.5 78.5t13.5 100.5h86zM267 703q28 0 67 -1.5t80.5 -4t74.5 -6.5l-8 -88q-28 2 -52 3t-53.5 1h-74.5q-37 1 -63 -1.5t-39.5 -12.5t-15.5 -32q-2 -31 16 -48t44 -31l148 -81q53 -26 76.5 -60.5t25 -79t-13.5 -100.5h-86q3 41 -2.5 68t-22 47t-48.5 38 l-165 93q-27 15 -50.5 34t-37 48.5t-13.5 74.5q0 57 24.5 87.5t72 41t116.5 10.5z" glyph-name="section" horiz-adv-x="550" unicode="§"/>
<glyph d="M320 701q28 0 28 -29v-57q0 -28 -28 -28h-40q-28 0 -28 28v57q0 29 28 29h40zM140 701q27 0 27 -29v-57q0 -28 -27 -28h-41q-28 0 -28 28v57q0 29 28 29h41z" glyph-name="dieresis" horiz-adv-x="418" unicode="¨"/>
<glyph d="M410 703q76 0 141 -26.5t114.5 -74.5t77.5 -113.5t28 -143.5t-28 -143.5t-77.5 -113.5t-114.5 -74.5t-141 -26.5q-75 0 -140.5 26.5t-114.5 74.5t-77 113.5t-28 143.5t28 143.5t77 113.5t114.5 74.5t140.5 26.5zM415 560q48 0 76.5 -3t59.5 -11l-9 -66q-32 1 -58.5 1.5 t-69.5 0.5q-39 0 -61 -12t-30.5 -41.5t-8.5 -81.5t8.5 -81.5t30.5 -42t61 -12.5q47 0 77.5 1t61.5 4l8 -66q-32 -8 -64.5 -12t-81.5 -4q-71 0 -114 20.5t-62 67t-19 125.5q0 78 19 125t62 67.5t114 20.5zM410 643q-61 0 -114.5 -22t-95 -62.5t-64.5 -94.5t-23 -119 q0 -64 23 -118.5t64.5 -95t95 -62.5t114.5 -22q62 0 116 22t94.5 62.5t64 95t23.5 118.5q0 65 -23.5 119t-64 94.5t-94.5 62.5t-116 22z" glyph-name="copyright" horiz-adv-x="820" unicode="©"/>
<glyph d="M251 612q59 0 91.5 -25.5t32.5 -92.5v-221h-71l-13 72l-5 10v140q0 22 -12 34t-43 12q-32 0 -72 -1.5t-80 -4.5l-9 62q25 3 55 6.5t63 6t63 2.5zM338 475l-1 -41l-153 -11q-24 -1 -33.5 -10.5t-9.5 -24.5v-16q0 -19 12 -28t34 -9t45.5 9t45 23t35.5 29v-40 q-6 -11 -20 -26t-33.5 -30t-45.5 -24.5t-57 -9.5q-44 0 -73.5 23t-29.5 67v36q0 39 26 61t73 22h185z" glyph-name="ordfeminine" horiz-adv-x="439" unicode="ª"/>
<glyph d="M393 462l64 -41l-115 -170l116 -174l-64 -42l-160 203v26zM197 462l64 -41l-115 -170l116 -174l-64 -42l-160 203v26z" glyph-name="guillemotleft" horiz-adv-x="504" unicode="«"/>
<glyph d="M515 345v-88h-451v88h451zM515 335v-201l-92 -1v199z" glyph-name="logicalnot" horiz-adv-x="585" unicode="¬"/>
<glyph d="M365 295v-82h-301v82h301z" glyph-name="uni00AD" horiz-adv-x="428" unicode="­"/>
<glyph d="M268 703q62 0 112 -30t80 -80t30 -112t-30 -112.5t-80 -80.5t-112 -30t-112.5 30t-80.5 80.5t-30 112.5t30 112t80.5 80t112.5 30zM222 605v-245h-53v245h53zM268 665q-50 0 -92 -24.5t-67 -66.5t-25 -93t25 -93.5t67 -67.5t92 -25q51 0 92.5 25t66.5 67.5t25 93.5 t-25 93t-66.5 66.5t-92.5 24.5zM276 608q55 0 79 -15t24 -57q0 -26 -12.5 -41.5t-43.5 -18.5v-2q12 -1 23.5 -9.5t16.5 -27.5l26 -77h-56l-23 74q-5 13 -13 18t-22 5h-65t-36 1v34h100q29 1 40.5 9t10.5 29q1 23 -10.5 30.5t-40.5 7.5h-62.5t-36.5 -2l-6 39q25 2 47 2.5 t60 0.5z" glyph-name="registered" horiz-adv-x="536" unicode="®"/>
<glyph d="M345 684v-80h-290v80h290z" glyph-name="macron" horiz-adv-x="400" unicode="¯"/>
<glyph d="M177 703q36 0 66 -17.5t48 -47t18 -65.5t-18 -66t-48 -48t-66 -18q-37 0 -67.5 18t-48.5 48t-18 66t18 65.5t48.5 47t67.5 17.5zM177 640q-28 0 -48 -19t-20 -48q0 -19 9.5 -35t24.5 -25t34 -9q18 0 33 9t24 25t9 35q0 29 -19.5 48t-46.5 19z" glyph-name="degree" horiz-adv-x="352" unicode="°"/>
<glyph d="M513 412v-90h-447v90h447zM513 146v-91h-447v91h447zM335 538v-342h-91v342h91z" glyph-name="plusminus" horiz-adv-x="579" unicode="±"/>
<glyph d="M200 775q53 0 88 -8t52.5 -29.5t17.5 -63.5q0 -30 -19.5 -62.5t-57.5 -68.5l-111 -107q17 3 31 3.5t32 0.5l140 -2l-1 -79h-321v49q0 11 3 20.5t11 17.5l111 106q25 24 42 43t26.5 36t10.5 31q2 23 -15 29t-47 6q-32 0 -61.5 -1.5t-71.5 -4.5l-4 70q47 10 84 12t60 2z " glyph-name="uni00B2" horiz-adv-x="419" unicode="²"/>
<glyph d="M198 777q82 0 115 -20.5t33 -74.5q0 -43 -15 -70t-58 -35v-2q48 -7 66 -31.5t19 -70.5q1 -65 -34.5 -93.5t-120.5 -28.5q-39 0 -79 3.5t-75 8.5l5 68q25 -1 45.5 -2.5t39.5 -1.5h39q49 0 66 12t17 46q0 16 -5 28t-20 19t-45 7l-85 1v62l85 2q30 1 43.5 8.5t17 20 t3.5 25.5q0 26 -15 34.5t-58 8.5q-32 0 -64.5 -1t-56.5 -2l-4 66q36 6 71 9.5t70 3.5z" glyph-name="uni00B3" horiz-adv-x="408" unicode="³"/>
<glyph d="M236 736l58 -86l-211 -115l-37 53z" glyph-name="acute" horiz-adv-x="337" unicode="´"/>
<glyph d="M188 491v-321q0 -46 17 -61t50 -15q36 0 68 23.5t51.5 65.5t20.5 95l3 -181q-15 -30 -40.5 -55t-58.5 -40t-72 -15q-44 0 -80.5 15t-57.5 47t-21 83v359h120zM188 94l-1 -167l-14 -122h-105v377zM515 491v-367q0 -16 2 -27.5t7.5 -17.5t18.5 -6h31l6 -66q-21 -8 -46 -13 t-50 -5q-39 0 -62.5 21.5t-23.5 67.5v19l-3 16v378h120z" glyph-name="uni00B5" horiz-adv-x="594" unicode="µ"/>
<glyph d="M349 702q34 0 79.5 -3.5t83.5 -13.5l-6 -70q-25 5 -57 7.5t-63 3.5t-54 1l-57 -427q-129 10 -185 68t-56 182q0 93 31.5 148t101 79.5t182.5 24.5zM348 685v-895h-83v895h83zM512 685v-685h-83v685h83z" glyph-name="paragraph" horiz-adv-x="601" unicode="¶"/>
<glyph d="M139 326q25 0 34.5 -9.5t9.5 -33.5v-50q0 -25 -9.5 -34.5t-34.5 -9.5h-33q-24 0 -34 9.5t-10 34.5v50q0 24 10 33.5t34 9.5h33z" glyph-name="periodcentered" horiz-adv-x="244" unicode="·"/>
<glyph d="M85 -40q46 5 74.5 1.5t42.5 -18.5t13 -48q-2 -46 -27 -77.5t-66 -44.5t-94 -7l16 55q39 -1 64.5 15.5t26.5 48.5q1 16 -11 20.5t-51 5.5z" glyph-name="cedilla" horiz-adv-x="242" unicode="¸"/>
<glyph d="M229 769v-410h-93v287q0 11 0.5 22t2.5 23l-105 -25l-11 62l113 41h93z" glyph-name="uni00B9" horiz-adv-x="302" unicode="¹"/>
<glyph d="M221 612q94 0 132.5 -39.5t38.5 -134.5q0 -63 -17 -101t-54 -55t-100 -17q-95 0 -133 39t-38 134t38 134.5t133 39.5zM221 544q-45 0 -61.5 -21.5t-16.5 -84.5q0 -62 16.5 -83.5t61.5 -21.5q44 0 60.5 21.5t16.5 83.5q0 63 -16.5 84.5t-60.5 21.5z" glyph-name="ordmasculine" horiz-adv-x="441" unicode="º"/>
<glyph d="M110 462l-64 -41l115 -170l-116 -174l64 -42l160 203v26zM308 462l-64 -41l115 -170l-116 -174l64 -42l160 203v26z" glyph-name="guillemotright" horiz-adv-x="504" unicode="»"/>
<glyph d="M656 690l-430 -690h-79l429 690h80zM238 690v-414h-93v291q0 11 1 22t3 23l-106 -25l-10 61l112 42h93zM691 414l-110 -238q-4 -8 0.5 -13t14.5 -5h254v-59l-54 -8h-269q-26 0 -41 18t-1 47l120 258h86zM802 334v-334h-87v268l16 66h71z" glyph-name="onequarter" horiz-adv-x="886" unicode="¼"/>
<glyph d="M652 690l-430 -690h-80l430 690h80zM238 690v-414h-93v291q0 11 1 22t3 23l-106 -25l-10 61l112 42h93zM685 421q53 0 88.5 -7.5t53 -29.5t17.5 -65q0 -29 -18.5 -61.5t-57.5 -70.5l-116 -109q18 3 32.5 3.5t32.5 -0.5l143 -1l-1 -80h-323v50q0 11 2.5 20.5t10.5 17.5 l113 107q37 36 57.5 64t23.5 49q1 24 -16.5 29.5t-49.5 5.5q-33 0 -61.5 -1t-71.5 -4l-4 69q48 9 84.5 11.5t60.5 2.5z" glyph-name="onehalf" horiz-adv-x="903" unicode="½"/>
<glyph d="M750 690l-430 -690h-80l430 690h80zM199 695q85 0 117.5 -20.5t32.5 -74.5q0 -43 -15 -71t-61 -34v-2q51 -7 69 -32.5t19 -71.5q1 -65 -34 -94.5t-123 -29.5q-39 0 -79 3.5t-77 8.5l4 68q27 -2 47.5 -2.5t40 -1t39.5 -0.5q50 0 68 13t18 47q0 17 -5.5 29.5t-20.5 19.5 t-47 7l-85 1v60l85 2q31 1 45 8.5t17.5 20t3.5 26.5q0 28 -15 36.5t-60 9.5q-34 0 -65.5 -0.5t-56.5 -2.5l-4 67q37 5 72 7.5t70 2.5zM778 414l-111 -238q-3 -8 1 -13t15 -5h253v-59l-53 -8h-269q-27 0 -41.5 18t-1.5 47l120 258h87zM887 334v-334h-87v268l15 66h72z" glyph-name="threequarters" horiz-adv-x="972" unicode="¾"/>
<glyph d="M316 289q2 -54 -12.5 -93.5t-37.5 -69.5t-46 -55t-39 -49t-18 -52q-2 -40 24 -59t85 -19q50 0 81.5 1t58 2.5t60.5 3.5l5 -83q-28 -5 -50 -9.5t-46.5 -7.5t-57 -5t-79.5 -2q-104 0 -156.5 38t-52.5 117q0 45 17.5 77t43.5 59t52.5 55.5t45.5 64t23 86.5h99zM281 504 q25 0 34.5 -9t9.5 -33v-52q0 -24 -9.5 -33.5t-34.5 -9.5h-28q-25 0 -34.5 9.5t-9.5 33.5v52q0 24 9.5 33t34.5 9h28z" glyph-name="questiondown" horiz-adv-x="509" unicode="¿"/>
<glyph d="M381 690q16 0 28 -9t17 -24l209 -657h-128l-158 532l-8 32t-7 31h-28q-3 -15 -7 -31t-9 -32l-157 -532h-128l209 657q4 15 16.5 24t28.5 9h122zM497 295v-98h-355v98h355zM201 927l189 -147l-37 -53l-210 115z" glyph-name="Agrave" horiz-adv-x="640" unicode="À"/>
<glyph d="M381 690q16 0 28 -9t17 -24l209 -657h-128l-158 532l-8 32t-7 31h-28q-3 -15 -7 -31t-9 -32l-157 -532h-128l209 657q4 15 16.5 24t28.5 9h122zM497 295v-98h-355v98h355zM430 927l58 -86l-211 -115l-37 53z" glyph-name="Aacute" horiz-adv-x="640" unicode="Á"/>
<glyph d="M381 690q16 0 28 -9t17 -24l209 -657h-128l-158 532l-8 32t-7 31h-28q-3 -15 -7 -31t-9 -32l-157 -532h-128l209 657q4 15 16.5 24t28.5 9h122zM497 295v-98h-355v98h355zM365 901l133 -131l-35 -46l-138 96h-8l-139 -96l-35 49l134 128h88z" glyph-name="Acircumflex" horiz-adv-x="640" unicode="Â"/>
<glyph d="M381 690q16 0 28 -9t17 -24l209 -657h-128l-158 532l-8 32t-7 31h-28q-3 -15 -7 -31t-9 -32l-157 -532h-128l209 657q4 15 16.5 24t28.5 9h122zM497 295v-98h-355v98h355zM233 886q24 -2 43.5 -8.5t37 -15.5t35.5 -16.5t39 -10.5q27 -4 35 7.5t8 38.5h54 q8 -64 -15.5 -97.5t-64.5 -30.5q-34 3 -60.5 14.5t-49.5 23.5t-47 15q-26 3 -33.5 -9t-7.5 -41h-54q-6 46 4 75.5t30.5 43t45.5 11.5z" glyph-name="Atilde" horiz-adv-x="640" unicode="Ã"/>
<glyph d="M381 690q16 0 28 -9t17 -24l209 -657h-128l-158 532l-8 32t-7 31h-28q-3 -15 -7 -31t-9 -32l-157 -532h-128l209 657q4 15 16.5 24t28.5 9h122zM497 295v-98h-355v98h355zM430 875q28 0 28 -29v-57q0 -28 -28 -28h-40q-28 0 -28 28v57q0 29 28 29h40zM250 875 q27 0 27 -29v-57q0 -28 -27 -28h-41q-28 0 -28 28v57q0 29 28 29h41z" glyph-name="Adieresis" horiz-adv-x="640" unicode="Ä"/>
<glyph d="M381 690q16 0 28 -9t17 -24l209 -657h-128l-158 532l-8 32t-7 31h-28q-3 -15 -7 -31t-9 -32l-157 -532h-128l209 657q4 15 16.5 24t28.5 9h122zM497 295v-98h-355v98h355zM321 935q30 0 56 -15t41.5 -39.5t15.5 -56.5q0 -30 -15.5 -55.5t-41 -40.5t-56.5 -15t-57 15 t-41.5 40t-15.5 56q0 32 15.5 56.5t41.5 39.5t57 15zM320 881q-22 0 -38 -16t-16 -41t16 -40.5t38 -15.5q24 0 40 15.5t16 40.5t-16 41t-40 16z" glyph-name="Aring" horiz-adv-x="640" unicode="Å"/>
<glyph d="M570 691q93 0 165 -1t146 -6l-6 -93h-249q-27 0 -43.5 -16t-16.5 -44v-374q0 -29 15 -43.5t45 -14.5h249l6 -93q-74 -6 -152 -7t-155 -1q-57 0 -91 37t-34 94v412q0 19 8 39t19 30h-10q-11 -8 -23.5 -23.5t-24.5 -34.5l-295 -552h-129l313 568q19 35 40.5 59t51 38 t71.5 20t100 6zM480 301v-94h-317l6 94h311zM461 406h376v-89l-376 -1v90z" glyph-name="AE" horiz-adv-x="925" unicode="Æ"/>
<glyph d="M336 702q47 0 80 -2.5t61 -7t58 -12.5l-11 -93q-31 2 -58 3.5t-57.5 2.5t-72.5 1q-58 0 -91 -23t-46.5 -77t-13.5 -149t13.5 -149t46.5 -77t91 -23q67 0 112.5 2.5t89.5 7.5l11 -92q-45 -14 -93 -20t-120 -6q-104 0 -166 34.5t-89.5 112.5t-27.5 210t27.5 210t89.5 112.5 t166 34.5zM274 -58q46 5 74.5 1.5t42.5 -18.5t13 -48q-2 -46 -27 -77.5t-66 -44.5t-94 -7l16 55q39 -1 64.5 15.5t26.5 48.5q1 16 -11 20.5t-51 5.5z" glyph-name="Ccedilla" unicode="Ç"/>
<glyph d="M213 692h106.5t107.5 -2t100 -6l-6 -93h-270q-28 0 -41.5 -14t-13.5 -44v-376q0 -30 13.5 -44t41.5 -14h270l6 -93q-47 -4 -100 -5.5t-107.5 -2t-106.5 -0.5q-64 0 -102.5 35.5t-39.5 95.5v432q1 60 39.5 95.5t102.5 35.5zM89 407h394v-92h-394v92zM194 941l189 -147 l-37 -53l-210 115z" glyph-name="Egrave" horiz-adv-x="570" unicode="È"/>
<glyph d="M213 692h106.5t107.5 -2t100 -6l-6 -93h-270q-28 0 -41.5 -14t-13.5 -44v-376q0 -30 13.5 -44t41.5 -14h270l6 -93q-47 -4 -100 -5.5t-107.5 -2t-106.5 -0.5q-64 0 -102.5 35.5t-39.5 95.5v432q1 60 39.5 95.5t102.5 35.5zM89 407h394v-92h-394v92zM423 941l58 -86 l-211 -115l-37 53z" glyph-name="Eacute" horiz-adv-x="570" unicode="É"/>
<glyph d="M213 692h106.5t107.5 -2t100 -6l-6 -93h-270q-28 0 -41.5 -14t-13.5 -44v-376q0 -30 13.5 -44t41.5 -14h270l6 -93q-47 -4 -100 -5.5t-107.5 -2t-106.5 -0.5q-64 0 -102.5 35.5t-39.5 95.5v432q1 60 39.5 95.5t102.5 35.5zM89 407h394v-92h-394v92zM358 916l133 -131 l-35 -46l-138 96h-8l-139 -96l-35 49l134 128h88z" glyph-name="Ecircumflex" horiz-adv-x="570" unicode="Ê"/>
<glyph d="M213 692h106.5t107.5 -2t100 -6l-6 -93h-270q-28 0 -41.5 -14t-13.5 -44v-376q0 -30 13.5 -44t41.5 -14h270l6 -93q-47 -4 -100 -5.5t-107.5 -2t-106.5 -0.5q-64 0 -102.5 35.5t-39.5 95.5v432q1 60 39.5 95.5t102.5 35.5zM89 407h394v-92h-394v92zM423 889q28 0 28 -29 v-57q0 -28 -28 -28h-40q-28 0 -28 28v57q0 29 28 29h40zM243 889q27 0 27 -29v-57q0 -28 -27 -28h-41q-28 0 -28 28v57q0 29 28 29h41z" glyph-name="Edieresis" horiz-adv-x="570" unicode="Ë"/>
<glyph d="M202 690v-690h-125v690h125zM20 931l189 -147l-37 -53l-210 115z" glyph-name="Igrave" horiz-adv-x="279" unicode="Ì"/>
<glyph d="M202 690v-690h-125v690h125zM249 931l58 -86l-211 -115l-37 53z" glyph-name="Iacute" horiz-adv-x="279" unicode="Í"/>
<glyph d="M202 690v-690h-125v690h125zM184 906l133 -131l-35 -46l-138 96h-8l-139 -96l-35 49l134 128h88z" glyph-name="Icircumflex" horiz-adv-x="279" unicode="Î"/>
<glyph d="M202 690v-690h-125v690h125zM249 880q28 0 28 -29v-57q0 -28 -28 -28h-40q-28 0 -28 28v57q0 29 28 29h40zM69 880q27 0 27 -29v-57q0 -28 -27 -28h-41q-28 0 -28 28v57q0 29 28 29h41z" glyph-name="Idieresis" horiz-adv-x="279" unicode="Ï"/>
<glyph d="M342 396v-65h-324v65h324zM340 699q78 0 132.5 -17.5t88 -58t48.5 -109t15 -169.5t-15 -169.5t-48.5 -109t-88 -58t-132.5 -17.5q-75 0 -139 2.5t-121 6.5l52 96q40 -2 92 -3.5t116 -1.5q58 0 91.5 22.5t47.5 78t14 153.5t-14 153.5t-47.5 78.5t-91.5 23q-62 0 -110.5 -1 t-94.5 -1l-55 92q57 4 120.5 6.5t139.5 2.5zM205 690v-690h-125v690h125z" glyph-name="Eth" horiz-adv-x="678" unicode="Ð"/>
<glyph d="M638 690v-643q0 -47 -46 -47h-85q-21 0 -32 9.5t-20 28.5l-209 416q-10 22 -22 48.5t-19 50.5h-13q2 -25 3.5 -50.5t1.5 -50.5v-452h-120v643q0 47 46 47h83q21 0 32 -9.5t20 -28.5l203 -405q12 -22 24.5 -49.5t23.5 -55.5h15q-2 29 -3.5 56.5t-1.5 54.5v437h119z M281 891q24 -2 43.5 -8.5t37 -15.5t35.5 -16.5t39 -10.5q27 -4 35 7.5t8 38.5h54q8 -64 -15.5 -97.5t-64.5 -30.5q-34 3 -60.5 14.5t-49.5 23.5t-47 15q-26 3 -33.5 -9t-7.5 -41h-54q-6 46 4 75.5t30.5 43t45.5 11.5z" glyph-name="Ntilde" horiz-adv-x="715" unicode="Ñ"/>
<glyph d="M339 703q80 0 135 -17.5t88.5 -58.5t48.5 -110t15 -172q0 -102 -15 -171.5t-48.5 -110.5t-88.5 -58.5t-135 -17.5q-78 0 -133 17.5t-89 58.5t-49 110.5t-15 171.5q0 103 15 172t49 110t89 58.5t133 17.5zM339 601q-59 0 -92.5 -23.5t-47.5 -79t-14 -153.5t14 -153.5 t47.5 -79t92.5 -23.5q60 0 93.5 23.5t47.5 79t14 153.5t-14 153.5t-47.5 79t-93.5 23.5zM221 931l189 -147l-37 -53l-210 115z" glyph-name="Ograve" horiz-adv-x="679" unicode="Ò"/>
<glyph d="M339 703q80 0 135 -17.5t88.5 -58.5t48.5 -110t15 -172q0 -102 -15 -171.5t-48.5 -110.5t-88.5 -58.5t-135 -17.5q-78 0 -133 17.5t-89 58.5t-49 110.5t-15 171.5q0 103 15 172t49 110t89 58.5t133 17.5zM339 601q-59 0 -92.5 -23.5t-47.5 -79t-14 -153.5t14 -153.5 t47.5 -79t92.5 -23.5q60 0 93.5 23.5t47.5 79t14 153.5t-14 153.5t-47.5 79t-93.5 23.5zM450 937l58 -86l-211 -115l-37 53z" glyph-name="Oacute" horiz-adv-x="679" unicode="Ó"/>
<glyph d="M339 703q80 0 135 -17.5t88.5 -58.5t48.5 -110t15 -172q0 -102 -15 -171.5t-48.5 -110.5t-88.5 -58.5t-135 -17.5q-78 0 -133 17.5t-89 58.5t-49 110.5t-15 171.5q0 103 15 172t49 110t89 58.5t133 17.5zM339 601q-59 0 -92.5 -23.5t-47.5 -79t-14 -153.5t14 -153.5 t47.5 -79t92.5 -23.5q60 0 93.5 23.5t47.5 79t14 153.5t-14 153.5t-47.5 79t-93.5 23.5zM385 906l133 -131l-35 -46l-138 96h-8l-139 -96l-35 49l134 128h88z" glyph-name="Ocircumflex" horiz-adv-x="679" unicode="Ô"/>
<glyph d="M339 703q80 0 135 -17.5t88.5 -58.5t48.5 -110t15 -172q0 -102 -15 -171.5t-48.5 -110.5t-88.5 -58.5t-135 -17.5q-78 0 -133 17.5t-89 58.5t-49 110.5t-15 171.5q0 103 15 172t49 110t89 58.5t133 17.5zM339 601q-59 0 -92.5 -23.5t-47.5 -79t-14 -153.5t14 -153.5 t47.5 -79t92.5 -23.5q60 0 93.5 23.5t47.5 79t14 153.5t-14 153.5t-47.5 79t-93.5 23.5zM252 891q24 -2 43.5 -8.5t37 -15.5t35.5 -16.5t39 -10.5q27 -4 35 7.5t8 38.5h54q8 -64 -15.5 -97.5t-64.5 -30.5q-34 3 -60.5 14.5t-49.5 23.5t-47 15q-26 3 -33.5 -9t-7.5 -41h-54 q-6 46 4 75.5t30.5 43t45.5 11.5z" glyph-name="Otilde" horiz-adv-x="679" unicode="Õ"/>
<glyph d="M339 703q80 0 135 -17.5t88.5 -58.5t48.5 -110t15 -172q0 -102 -15 -171.5t-48.5 -110.5t-88.5 -58.5t-135 -17.5q-78 0 -133 17.5t-89 58.5t-49 110.5t-15 171.5q0 103 15 172t49 110t89 58.5t133 17.5zM339 601q-59 0 -92.5 -23.5t-47.5 -79t-14 -153.5t14 -153.5 t47.5 -79t92.5 -23.5q60 0 93.5 23.5t47.5 79t14 153.5t-14 153.5t-47.5 79t-93.5 23.5zM450 880q28 0 28 -29v-57q0 -28 -28 -28h-40q-28 0 -28 28v57q0 29 28 29h40zM270 880q27 0 27 -29v-57q0 -28 -27 -28h-41q-28 0 -28 28v57q0 29 28 29h41z" glyph-name="Odieresis" horiz-adv-x="679" unicode="Ö"/>
<glyph d="M399 487l-361 -323l58 -70l361 324zM96 487l-58 -70l361 -323l58 70z" glyph-name="multiply" horiz-adv-x="490" unicode="×"/>
<glyph d="M497 752l50 -21l-372 -793l-48 22zM339 703q80 0 135 -17.5t88.5 -58.5t48.5 -110t15 -172q0 -102 -15 -171.5t-48.5 -110.5t-88.5 -58.5t-135 -17.5q-78 0 -133 17.5t-89 58.5t-49 110.5t-15 171.5q0 103 15 172t49 110t89 58.5t133 17.5zM339 601q-59 0 -92.5 -23.5 t-47.5 -79t-14 -153.5t14 -153.5t47.5 -79t92.5 -23.5q60 0 93.5 23.5t47.5 79t14 153.5t-14 153.5t-47.5 79t-93.5 23.5z" glyph-name="Oslash" horiz-adv-x="679" unicode="Ø"/>
<glyph d="M605 690v-420q0 -103 -25 -165t-82 -90t-153 -28q-100 0 -160 28t-86.5 90t-26.5 165v420h125v-420q0 -68 13.5 -108t44.5 -56.5t84 -16.5t83.5 16.5t44 56.5t13.5 108v420h125zM220 931l189 -147l-37 -53l-210 115z" glyph-name="Ugrave" horiz-adv-x="677" unicode="Ù"/>
<glyph d="M605 690v-420q0 -103 -25 -165t-82 -90t-153 -28q-100 0 -160 28t-86.5 90t-26.5 165v420h125v-420q0 -68 13.5 -108t44.5 -56.5t84 -16.5t83.5 16.5t44 56.5t13.5 108v420h125zM449 931l58 -86l-211 -115l-37 53z" glyph-name="Uacute" horiz-adv-x="677" unicode="Ú"/>
<glyph d="M605 690v-420q0 -103 -25 -165t-82 -90t-153 -28q-100 0 -160 28t-86.5 90t-26.5 165v420h125v-420q0 -68 13.5 -108t44.5 -56.5t84 -16.5t83.5 16.5t44 56.5t13.5 108v420h125zM384 906l133 -131l-35 -46l-138 96h-8l-139 -96l-35 49l134 128h88z" glyph-name="Ucircumflex" horiz-adv-x="677" unicode="Û"/>
<glyph d="M605 690v-420q0 -103 -25 -165t-82 -90t-153 -28q-100 0 -160 28t-86.5 90t-26.5 165v420h125v-420q0 -68 13.5 -108t44.5 -56.5t84 -16.5t83.5 16.5t44 56.5t13.5 108v420h125zM450 880q28 0 28 -29v-57q0 -28 -28 -28h-40q-28 0 -28 28v57q0 29 28 29h40zM270 880 q27 0 27 -29v-57q0 -28 -27 -28h-41q-28 0 -28 28v57q0 29 28 29h41z" glyph-name="Udieresis" horiz-adv-x="677" unicode="Ü"/>
<glyph d="M588 690l-233 -464h-116l-234 464h131l128 -270q9 -19 15.5 -41t13.5 -42h8q6 20 13 42t15 41l128 270h131zM359 305v-305h-125v305h125zM407 924l58 -86l-211 -115l-37 53z" glyph-name="Yacute" horiz-adv-x="594" unicode="Ý"/>
<glyph d="M328 570q90 0 142 -19.5t74 -67.5t22 -136q0 -87 -21.5 -135.5t-70 -67.5t-130.5 -19q-44 0 -85.5 3t-76.5 8t-60 10.5t-35 9.5l3 67h116h120q43 1 68 11t35.5 36.5t10.5 76.5q0 51 -10.5 78t-35.5 37.5t-68 10.5q-87 0 -149.5 -1t-85.5 -4l-14 94q40 4 75 5.5t76 2 t100 0.5zM202 690v-690h-125v690h125z" glyph-name="Thorn" horiz-adv-x="604" unicode="Þ"/>
<glyph d="M349 727q88 0 139.5 -13.5t73.5 -44.5t22 -84q0 -25 -6 -45t-21.5 -39.5t-47.5 -41.5q-25 -17 -43.5 -29t-28.5 -24.5t-10 -33.5q0 -23 17.5 -36t45.5 -29l89 -45q31 -18 49.5 -34.5t27.5 -39t9 -58.5q0 -54 -19 -85t-60.5 -43.5t-105.5 -12.5q-35 0 -75.5 2.5t-90.5 8.5 l7 83q35 -3 68 -3.5t65 -0.5q33 1 52.5 4t29 15t9.5 37q0 20 -8.5 32.5t-24.5 23t-38 22.5l-84 39q-35 20 -56.5 46.5t-21.5 67.5q0 34 14 54.5t38 36.5t53 37q31 23 43 40t12 44q0 21 -10 33.5t-35.5 19t-74.5 6.5q-47 0 -74 -8t-37.5 -29.5t-10.5 -63.5v-536h-122v550 q0 56 15.5 90.5t45.5 53.5t75 26t105 7zM169 491v-85h-147v82l89 3h58z" glyph-name="germandbls" horiz-adv-x="693" unicode="ß"/>
<glyph d="M315 503q59 0 100 -15.5t61.5 -52.5t20.5 -102v-333h-96l-17 106l-9 14v214q0 39 -18 56.5t-69 17.5q-38 0 -95.5 -3t-115.5 -8l-11 83q35 7 79 12t89 8t81 3zM445 302l-1 -75h-225q-30 -1 -43 -16t-13 -41v-27q0 -30 16 -45t50 -15q27 0 60 10.5t65.5 31.5t58.5 50v-63 q-10 -15 -29 -35.5t-46.5 -40.5t-63 -33t-78.5 -13q-44 0 -79 15.5t-55 46t-20 75.5v52q0 58 38.5 90.5t105.5 32.5h259zM162 754l189 -147l-37 -53l-210 115z" glyph-name="agrave" horiz-adv-x="561" unicode="à"/>
<glyph d="M315 503q59 0 100 -15.5t61.5 -52.5t20.5 -102v-333h-96l-17 106l-9 14v214q0 39 -18 56.5t-69 17.5q-38 0 -95.5 -3t-115.5 -8l-11 83q35 7 79 12t89 8t81 3zM445 302l-1 -75h-225q-30 -1 -43 -16t-13 -41v-27q0 -30 16 -45t50 -15q27 0 60 10.5t65.5 31.5t58.5 50v-63 q-10 -15 -29 -35.5t-46.5 -40.5t-63 -33t-78.5 -13q-44 0 -79 15.5t-55 46t-20 75.5v52q0 58 38.5 90.5t105.5 32.5h259zM391 754l58 -86l-211 -115l-37 53z" glyph-name="aacute" horiz-adv-x="561" unicode="á"/>
<glyph d="M315 503q59 0 100 -15.5t61.5 -52.5t20.5 -102v-333h-96l-17 106l-9 14v214q0 39 -18 56.5t-69 17.5q-38 0 -95.5 -3t-115.5 -8l-11 83q35 7 79 12t89 8t81 3zM445 302l-1 -75h-225q-30 -1 -43 -16t-13 -41v-27q0 -30 16 -45t50 -15q27 0 60 10.5t65.5 31.5t58.5 50v-63 q-10 -15 -29 -35.5t-46.5 -40.5t-63 -33t-78.5 -13q-44 0 -79 15.5t-55 46t-20 75.5v52q0 58 38.5 90.5t105.5 32.5h259zM326 728l133 -131l-35 -46l-138 96h-8l-139 -96l-35 49l134 128h88z" glyph-name="acircumflex" horiz-adv-x="561" unicode="â"/>
<glyph d="M315 503q59 0 100 -15.5t61.5 -52.5t20.5 -102v-333h-96l-17 106l-9 14v214q0 39 -18 56.5t-69 17.5q-38 0 -95.5 -3t-115.5 -8l-11 83q35 7 79 12t89 8t81 3zM445 302l-1 -75h-225q-30 -1 -43 -16t-13 -41v-27q0 -30 16 -45t50 -15q27 0 60 10.5t65.5 31.5t58.5 50v-63 q-10 -15 -29 -35.5t-46.5 -40.5t-63 -33t-78.5 -13q-44 0 -79 15.5t-55 46t-20 75.5v52q0 58 38.5 90.5t105.5 32.5h259zM194 714q24 -2 43.5 -8.5t37 -15.5t35.5 -16.5t39 -10.5q27 -4 35 7.5t8 38.5h54q8 -64 -15.5 -97.5t-64.5 -30.5q-34 3 -60.5 14.5t-49.5 23.5t-47 15 q-26 3 -33.5 -9t-7.5 -41h-54q-6 46 4 75.5t30.5 43t45.5 11.5z" glyph-name="atilde" horiz-adv-x="561" unicode="ã"/>
<glyph d="M315 503q59 0 100 -15.5t61.5 -52.5t20.5 -102v-333h-96l-17 106l-9 14v214q0 39 -18 56.5t-69 17.5q-38 0 -95.5 -3t-115.5 -8l-11 83q35 7 79 12t89 8t81 3zM445 302l-1 -75h-225q-30 -1 -43 -16t-13 -41v-27q0 -30 16 -45t50 -15q27 0 60 10.5t65.5 31.5t58.5 50v-63 q-10 -15 -29 -35.5t-46.5 -40.5t-63 -33t-78.5 -13q-44 0 -79 15.5t-55 46t-20 75.5v52q0 58 38.5 90.5t105.5 32.5h259zM392 703q28 0 28 -29v-57q0 -28 -28 -28h-40q-28 0 -28 28v57q0 29 28 29h40zM212 703q27 0 27 -29v-57q0 -28 -27 -28h-41q-28 0 -28 28v57 q0 29 28 29h41z" glyph-name="adieresis" horiz-adv-x="561" unicode="ä"/>
<glyph d="M315 503q59 0 100 -15.5t61.5 -52.5t20.5 -102v-333h-96l-17 106l-9 14v214q0 39 -18 56.5t-69 17.5q-38 0 -95.5 -3t-115.5 -8l-11 83q35 7 79 12t89 8t81 3zM445 302l-1 -75h-225q-30 -1 -43 -16t-13 -41v-27q0 -30 16 -45t50 -15q27 0 60 10.5t65.5 31.5t58.5 50v-63 q-10 -15 -29 -35.5t-46.5 -40.5t-63 -33t-78.5 -13q-44 0 -79 15.5t-55 46t-20 75.5v52q0 58 38.5 90.5t105.5 32.5h259zM282 763q30 0 56 -15t41.5 -39.5t15.5 -56.5q0 -30 -15.5 -55.5t-41 -40.5t-56.5 -15t-57 15t-41.5 40t-15.5 56q0 32 15.5 56.5t41.5 39.5t57 15z M281 709q-22 0 -38 -16t-16 -41t16 -40.5t38 -15.5q24 0 40 15.5t16 40.5t-16 41t-40 16z" glyph-name="aring" horiz-adv-x="561" unicode="å"/>
<glyph d="M611 503q119 0 170.5 -41.5t52.5 -122.5q1 -45 -14 -75.5t-47 -45.5t-85 -15h-269v75h237q36 0 48 17t11 45q0 40 -22.5 56.5t-76.5 16.5q-47 0 -73 -13t-36.5 -47t-10.5 -98q0 -68 13 -105t42.5 -50.5t81.5 -13.5q36 0 84 3t94 8l11 -77q-26 -11 -61.5 -18t-72.5 -10.5 t-70 -3.5q-89 0 -143 26.5t-78.5 83.5t-24.5 147q0 97 24.5 153.5t77 80.5t137.5 24zM443 301l-1 -74h-224q-30 -1 -42.5 -16t-12.5 -41v-27q0 -30 16 -45t49 -15q28 0 60.5 10.5t66 32t59.5 52.5l3 -67q-10 -15 -29.5 -35.5t-47.5 -40.5t-64.5 -32.5t-80.5 -12.5 t-78.5 15.5t-54.5 46t-20 75.5v52q0 58 38 90t105 32h258zM313 503q59 0 99.5 -15.5t61 -52.5t20.5 -102v-97h-122v98q0 39 -18 56.5t-68 17.5q-38 0 -95 -3t-114 -8l-12 83q35 7 79 12t88.5 8t80.5 3z" glyph-name="ae" horiz-adv-x="875" unicode="æ"/>
<glyph d="M288 503q25 0 55 -2t61 -8t56 -17l-14 -76q-37 2 -73.5 3t-63.5 1q-51 0 -80.5 -13.5t-42.5 -48t-13 -96.5t13 -96.5t42.5 -48.5t80.5 -14q15 0 39.5 1t53 3t55.5 5l12 -78q-39 -16 -87 -23t-95 -7q-88 0 -141 25t-76.5 81.5t-23.5 151.5t24 151.5t77 81t141 24.5z M227 -53q46 5 74.5 1.5t42.5 -18.5t13 -48q-2 -46 -27 -77.5t-66 -44.5t-94 -7l16 55q39 -1 64.5 15.5t26.5 48.5q1 16 -11 20.5t-51 5.5z" glyph-name="ccedilla" horiz-adv-x="500" unicode="ç"/>
<glyph d="M287 503q119 0 171 -41.5t53 -122.5q1 -67 -31.5 -101.5t-107.5 -34.5h-280v75h247q34 0 43.5 18t9.5 44q-1 41 -23.5 57t-76.5 16q-47 0 -73 -13t-36.5 -47t-10.5 -98q0 -68 13 -105t43 -50.5t80 -13.5q37 0 85.5 3t93.5 8l12 -77q-27 -11 -62 -18t-72.5 -10.5 t-70.5 -3.5q-90 0 -144.5 26.5t-79 83.5t-24.5 147q0 97 24.5 153.5t78 80.5t138.5 24zM170 752l189 -147l-37 -53l-210 115z" glyph-name="egrave" horiz-adv-x="552" unicode="è"/>
<glyph d="M287 503q119 0 171 -41.5t53 -122.5q1 -67 -31.5 -101.5t-107.5 -34.5h-280v75h247q34 0 43.5 18t9.5 44q-1 41 -23.5 57t-76.5 16q-47 0 -73 -13t-36.5 -47t-10.5 -98q0 -68 13 -105t43 -50.5t80 -13.5q37 0 85.5 3t93.5 8l12 -77q-27 -11 -62 -18t-72.5 -10.5 t-70.5 -3.5q-90 0 -144.5 26.5t-79 83.5t-24.5 147q0 97 24.5 153.5t78 80.5t138.5 24zM400 752l58 -86l-211 -115l-37 53z" glyph-name="eacute" horiz-adv-x="552" unicode="é"/>
<glyph d="M287 503q119 0 171 -41.5t53 -122.5q1 -67 -31.5 -101.5t-107.5 -34.5h-280v75h247q34 0 43.5 18t9.5 44q-1 41 -23.5 57t-76.5 16q-47 0 -73 -13t-36.5 -47t-10.5 -98q0 -68 13 -105t43 -50.5t80 -13.5q37 0 85.5 3t93.5 8l12 -77q-27 -11 -62 -18t-72.5 -10.5 t-70.5 -3.5q-90 0 -144.5 26.5t-79 83.5t-24.5 147q0 97 24.5 153.5t78 80.5t138.5 24zM335 726l133 -131l-35 -46l-138 96h-8l-139 -96l-35 49l134 128h88z" glyph-name="ecircumflex" horiz-adv-x="552" unicode="ê"/>
<glyph d="M287 503q119 0 171 -41.5t53 -122.5q1 -67 -31.5 -101.5t-107.5 -34.5h-280v75h247q34 0 43.5 18t9.5 44q-1 41 -23.5 57t-76.5 16q-47 0 -73 -13t-36.5 -47t-10.5 -98q0 -68 13 -105t43 -50.5t80 -13.5q37 0 85.5 3t93.5 8l12 -77q-27 -11 -62 -18t-72.5 -10.5 t-70.5 -3.5q-90 0 -144.5 26.5t-79 83.5t-24.5 147q0 97 24.5 153.5t78 80.5t138.5 24zM400 701q28 0 28 -29v-57q0 -28 -28 -28h-40q-28 0 -28 28v57q0 29 28 29h40zM220 701q27 0 27 -29v-57q0 -28 -27 -28h-41q-28 0 -28 28v57q0 29 28 29h41z" glyph-name="edieresis" horiz-adv-x="552" unicode="ë"/>
<glyph d="M193 491v-491h-121v491h121zM12 753l189 -147l-37 -53l-210 115z" glyph-name="igrave" horiz-adv-x="265" unicode="ì"/>
<glyph d="M193 491v-491h-121v491h121zM242 753l58 -86l-211 -115l-37 53z" glyph-name="iacute" horiz-adv-x="265" unicode="í"/>
<glyph d="M193 491v-491h-121v491h121zM176 726l133 -131l-35 -46l-138 96h-8l-139 -96l-35 49l134 128h88z" glyph-name="icircumflex" horiz-adv-x="265" unicode="î"/>
<glyph d="M193 491v-491h-121v491h121zM241 701q28 0 28 -29v-57q0 -28 -28 -28h-40q-28 0 -28 28v57q0 29 28 29h40zM61 701q27 0 27 -29v-57q0 -28 -27 -28h-41q-28 0 -28 28v57q0 29 28 29h41z" glyph-name="idieresis" horiz-adv-x="265" unicode="ï"/>
<glyph d="M134 698q64 4 122 -9t106 -43.5t83 -79.5t54 -118.5t19 -162.5q0 -72 -11 -127.5t-37.5 -93.5t-72.5 -57.5t-116 -19.5q-119 0 -176.5 55.5t-57.5 175.5q0 75 20.5 126.5t67 78t123.5 26.5q26 0 58 -5t64.5 -21t57.5 -46l-7 -51q-35 17 -71 24.5t-79 7.5 q-40 0 -63.5 -14.5t-33.5 -45.5t-10 -79q0 -78 25.5 -108.5t83.5 -30.5q48 0 71 22t30.5 68.5t7.5 117.5q0 84 -13.5 143t-37.5 96.5t-57.5 57.5t-74.5 27t-87 4zM418 718l37 -45l-215 -172l-37 44z" glyph-name="eth" horiz-adv-x="572" unicode="ð"/>
<glyph d="M391 503q137 0 137 -135v-368h-121v331q0 40 -14 55t-47 15q-37 0 -76 -16.5t-94 -47.5l-5 73q55 45 110.5 69t109.5 24zM167 491l12 -96l10 -14v-381h-121v491h99zM218 711q24 -2 43.5 -8.5t37 -15.5t35.5 -16.5t39 -10.5q27 -4 35 7.5t8 38.5h54q8 -64 -15.5 -97.5 t-64.5 -30.5q-34 3 -60.5 14.5t-49.5 23.5t-47 15q-26 3 -33.5 -9t-7.5 -41h-54q-6 46 4 75.5t30.5 43t45.5 11.5z" glyph-name="ntilde" horiz-adv-x="593" unicode="ñ"/>
<glyph d="M290 503q90 0 143.5 -25t77 -82t23.5 -151t-23.5 -150.5t-77 -82t-143.5 -25.5q-88 0 -141.5 25.5t-77.5 82t-24 150.5t24 151t77.5 82t141.5 25zM290 411q-44 0 -69.5 -14.5t-36.5 -50.5t-11 -101t11 -101t36.5 -50t69.5 -14q45 0 71 14t36.5 50t10.5 101t-10.5 101 t-36.5 50.5t-71 14.5zM172 746l189 -147l-37 -53l-210 115z" glyph-name="ograve" unicode="ò"/>
<glyph d="M290 503q90 0 143.5 -25t77 -82t23.5 -151t-23.5 -150.5t-77 -82t-143.5 -25.5q-88 0 -141.5 25.5t-77.5 82t-24 150.5t24 151t77.5 82t141.5 25zM290 411q-44 0 -69.5 -14.5t-36.5 -50.5t-11 -101t11 -101t36.5 -50t69.5 -14q45 0 71 14t36.5 50t10.5 101t-10.5 101 t-36.5 50.5t-71 14.5zM401 746l58 -86l-211 -115l-37 53z" glyph-name="oacute" unicode="ó"/>
<glyph d="M290 503q90 0 143.5 -25t77 -82t23.5 -151t-23.5 -150.5t-77 -82t-143.5 -25.5q-88 0 -141.5 25.5t-77.5 82t-24 150.5t24 151t77.5 82t141.5 25zM290 411q-44 0 -69.5 -14.5t-36.5 -50.5t-11 -101t11 -101t36.5 -50t69.5 -14q45 0 71 14t36.5 50t10.5 101t-10.5 101 t-36.5 50.5t-71 14.5zM336 720l133 -131l-35 -46l-138 96h-8l-139 -96l-35 49l134 128h88z" glyph-name="ocircumflex" unicode="ô"/>
<glyph d="M290 503q90 0 143.5 -25t77 -82t23.5 -151t-23.5 -150.5t-77 -82t-143.5 -25.5q-88 0 -141.5 25.5t-77.5 82t-24 150.5t24 151t77.5 82t141.5 25zM290 411q-44 0 -69.5 -14.5t-36.5 -50.5t-11 -101t11 -101t36.5 -50t69.5 -14q45 0 71 14t36.5 50t10.5 101t-10.5 101 t-36.5 50.5t-71 14.5zM204 705q24 -2 43.5 -8.5t37 -15.5t35.5 -16.5t39 -10.5q27 -4 35 7.5t8 38.5h54q8 -64 -15.5 -97.5t-64.5 -30.5q-34 3 -60.5 14.5t-49.5 23.5t-47 15q-26 3 -33.5 -9t-7.5 -41h-54q-6 46 4 75.5t30.5 43t45.5 11.5z" glyph-name="otilde" unicode="õ"/>
<glyph d="M290 503q90 0 143.5 -25t77 -82t23.5 -151t-23.5 -150.5t-77 -82t-143.5 -25.5q-88 0 -141.5 25.5t-77.5 82t-24 150.5t24 151t77.5 82t141.5 25zM290 411q-44 0 -69.5 -14.5t-36.5 -50.5t-11 -101t11 -101t36.5 -50t69.5 -14q45 0 71 14t36.5 50t10.5 101t-10.5 101 t-36.5 50.5t-71 14.5zM401 695q28 0 28 -29v-57q0 -28 -28 -28h-40q-28 0 -28 28v57q0 29 28 29h40zM221 695q27 0 27 -29v-57q0 -28 -27 -28h-41q-28 0 -28 28v57q0 29 28 29h41z" glyph-name="odieresis" unicode="ö"/>
<glyph d="M505 338v-88h-450v88h450zM294 176q25 0 35 -9.5t10 -35.5v-39q0 -26 -10 -35.5t-35 -9.5h-30q-25 0 -34.5 9.5t-9.5 35.5v39q0 26 9.5 35.5t34.5 9.5h30zM294 540q25 0 35 -10t10 -35v-40q0 -25 -10 -34.5t-35 -9.5h-30q-25 0 -34.5 9.5t-9.5 34.5v40q0 25 9.5 35 t34.5 10h30z" glyph-name="divide" horiz-adv-x="561" unicode="÷"/>
<glyph d="M414 571l41 -20l-293 -631l-41 20zM290 503q90 0 143.5 -25t77 -82t23.5 -151t-23.5 -150.5t-77 -82t-143.5 -25.5q-88 0 -141.5 25.5t-77.5 82t-24 150.5t24 151t77.5 82t141.5 25zM290 411q-44 0 -69.5 -14.5t-36.5 -50.5t-11 -101t11 -101t36.5 -50t69.5 -14 q45 0 71 14t36.5 50t10.5 101t-10.5 101t-36.5 50.5t-71 14.5z" glyph-name="oslash" unicode="ø"/>
<glyph d="M186 491v-332q-1 -37 14.5 -53t50.5 -16t70 15t85 45l12 -72q-56 -45 -108 -68t-108 -23q-137 0 -137 135v369h121zM515 491v-491h-96l-13 95l-12 14v382h121zM171 754l189 -147l-37 -53l-210 115z" glyph-name="ugrave" horiz-adv-x="583" unicode="ù"/>
<glyph d="M186 491v-332q-1 -37 14.5 -53t50.5 -16t70 15t85 45l12 -72q-56 -45 -108 -68t-108 -23q-137 0 -137 135v369h121zM515 491v-491h-96l-13 95l-12 14v382h121zM401 754l58 -86l-211 -115l-37 53z" glyph-name="uacute" horiz-adv-x="583" unicode="ú"/>
<glyph d="M186 491v-332q-1 -37 14.5 -53t50.5 -16t70 15t85 45l12 -72q-56 -45 -108 -68t-108 -23q-137 0 -137 135v369h121zM515 491v-491h-96l-13 95l-12 14v382h121zM335 728l133 -131l-35 -46l-138 96h-8l-139 -96l-35 49l134 128h88z" glyph-name="ucircumflex" horiz-adv-x="583" unicode="û"/>
<glyph d="M186 491v-332q-1 -37 14.5 -53t50.5 -16t70 15t85 45l12 -72q-56 -45 -108 -68t-108 -23q-137 0 -137 135v369h121zM515 491v-491h-96l-13 95l-12 14v382h121zM401 703q28 0 28 -29v-57q0 -28 -28 -28h-40q-28 0 -28 28v57q0 29 28 29h40zM221 703q27 0 27 -29v-57 q0 -28 -27 -28h-41q-28 0 -28 28v57q0 29 28 29h41z" glyph-name="udieresis" horiz-adv-x="583" unicode="ü"/>
<glyph d="M537 491l-184 -506q-13 -35 -32.5 -69.5t-49.5 -62.5t-71 -44t-95 -12l-10 72q60 17 93.5 46t52.5 74l27 64q9 22 17.5 50.5t14.5 49.5l107 338h130zM141 491l109 -338q5 -17 9 -34.5t7 -34.5h25l-38 -84h-32q-14 0 -25 8t-15 22l-169 461h129zM388 753l58 -86l-211 -115 l-37 53z" glyph-name="yacute" horiz-adv-x="550" unicode="ý"/>
<glyph d="M362 503q96 0 136.5 -64t40.5 -198q0 -96 -19.5 -152t-59.5 -79t-102 -23q-54 0 -105 15t-94 48l16 61q39 -15 71.5 -24.5t67.5 -9.5q36 0 58 14t32 49.5t10 100.5q0 66 -10 102t-31 50t-56 14q-34 0 -65 -14.5t-67 -40.5l-22 63q37 39 85 63.5t114 24.5zM189 700v-150 q0 -30 -1 -59.5t-4 -59.5l5 -12v-354l-5 -12q3 -29 4 -58.5t1 -60.5v-129h-121v895h121z" glyph-name="thorn" horiz-adv-x="587" unicode="þ"/>
<glyph d="M193 491v-491h-121v491h121z" glyph-name="dotlessi" horiz-adv-x="265" unicode="ı"/>
<glyph d="M263 722l133 -131l-35 -46l-138 96h-8l-139 -96l-35 49l134 128h88z" glyph-name="circumflex" horiz-adv-x="436" unicode="ˆ"/>
<glyph d="M153 758q30 0 56 -15t41.5 -39.5t15.5 -56.5q0 -30 -15.5 -55.5t-41 -40.5t-56.5 -15t-57 15t-41.5 40t-15.5 56q0 32 15.5 56.5t41.5 39.5t57 15zM152 704q-22 0 -38 -16t-16 -41t16 -40.5t38 -15.5q24 0 40 15.5t16 40.5t-16 41t-40 16z" glyph-name="ring" horiz-adv-x="305" unicode="˚"/>
<glyph d="M130 706q24 -2 43.5 -8.5t37 -15.5t35.5 -16.5t39 -10.5q27 -4 35 7.5t8 38.5h54q8 -64 -15.5 -97.5t-64.5 -30.5q-34 3 -60.5 14.5t-49.5 23.5t-47 15q-26 3 -33.5 -9t-7.5 -41h-54q-6 46 4 75.5t30.5 43t45.5 11.5z" glyph-name="tilde" horiz-adv-x="431" unicode="˜"/>
<glyph d="M191 462l64 -41l-115 -170l116 -174l-64 -42l-160 203v26z" glyph-name="guilsinglleft" horiz-adv-x="294" unicode="‹"/>
</font>
</defs>
</svg>
